<svg width="529" height="75" viewBox="0 0 529 75" fill="none" xmlns="http://www.w3.org/2000/svg">
<path d="M481.41 3.34399H495.33V60.56H528.546V74H481.41V3.34399Z" fill="#292B2B"/>
<path d="M353.475 3.34399H401.091V16.784H383.907V74H369.987V16.784H353.475V3.34399Z" fill="#292B2B"/>
<path d="M337.194 3.34399V74H323.274V45.296H291.69V74H277.77V3.34399H291.69V31.856H323.274V3.34399H337.194Z" fill="#292B2B"/>
<path d="M256.649 20.432C253.961 18.96 251.209 17.744 248.393 16.784C245.641 15.824 243.049 15.344 240.617 15.344C237.609 15.344 235.241 15.952 233.513 17.168C231.785 18.384 230.921 20.208 230.921 22.64C230.921 24.304 231.561 25.808 232.841 27.152C234.185 28.432 235.881 29.584 237.929 30.608C240.041 31.632 242.217 32.56 244.457 33.392C246.505 34.16 248.521 35.088 250.505 36.176C252.553 37.2 254.377 38.512 255.977 40.112C257.577 41.648 258.857 43.6 259.817 45.968C260.777 48.272 261.257 51.12 261.257 54.512C261.257 58.096 260.329 61.424 258.473 64.496C256.617 67.568 253.897 70.064 250.313 71.984C246.729 73.84 242.313 74.768 237.065 74.768C234.377 74.768 231.625 74.512 228.809 74C226.057 73.424 223.337 72.592 220.649 71.504C217.961 70.352 215.369 68.912 212.873 67.184L219.017 56.336C220.681 57.552 222.473 58.64 224.393 59.6C226.377 60.496 228.361 61.2 230.345 61.712C232.329 62.224 234.153 62.48 235.817 62.48C237.481 62.48 239.145 62.256 240.809 61.808C242.537 61.296 243.945 60.464 245.033 59.312C246.185 58.16 246.761 56.56 246.761 54.512C246.761 53.104 246.281 51.824 245.321 50.672C244.425 49.52 243.177 48.464 241.577 47.504C240.041 46.544 238.345 45.712 236.489 45.008C234.313 44.176 232.073 43.216 229.769 42.128C227.465 41.04 225.289 39.728 223.241 38.192C221.257 36.592 219.625 34.64 218.345 32.336C217.129 29.968 216.521 27.088 216.521 23.696C216.521 19.6 217.417 16.048 219.209 13.04C221.065 10.032 223.657 7.66399 226.985 5.93599C230.313 4.14399 234.153 3.15199 238.505 2.95999C244.201 2.95999 248.809 3.63199 252.329 4.97599C255.913 6.31999 259.113 7.91999 261.929 9.77599L256.649 20.432Z" fill="#292B2B"/>
<path d="M171.637 3.34399C176.053 3.34399 179.989 3.91999 183.445 5.07199C186.901 6.16 189.781 7.76 192.085 9.872C194.453 11.92 196.245 14.416 197.461 17.36C198.677 20.24 199.285 23.504 199.285 27.152C199.285 30.032 198.837 32.912 197.941 35.792C197.109 38.672 195.701 41.296 193.717 43.664C191.797 46.032 189.237 47.952 186.037 49.424C182.837 50.832 178.869 51.536 174.133 51.536H164.149V74H150.229V3.34399H171.637ZM174.037 38.096C176.149 38.096 177.909 37.744 179.317 37.04C180.725 36.336 181.813 35.44 182.581 34.352C183.413 33.264 183.989 32.144 184.309 30.992C184.693 29.776 184.885 28.656 184.885 27.632C184.885 26.864 184.757 25.904 184.501 24.752C184.309 23.536 183.861 22.32 183.157 21.104C182.453 19.888 181.365 18.864 179.893 18.032C178.485 17.2 176.565 16.784 174.133 16.784H164.149V38.096H174.037ZM188.082 48.3724L204.565 74H188.341L174.133 51.536L181.601 50.8249L188.082 48.3724Z" fill="#292B2B"/>
<path d="M72.5404 74L104.412 0.559998H105.18L137.052 74H120.924L104.826 32.1251L104.838 32.0969L86.2684 74H72.5404Z" fill="#292B2B"/>
<path d="M408.835 73.44L440.707 0H441.475L473.347 73.44H457.219L441.12 31.5651L441.133 31.5369L422.563 73.44H408.835Z" fill="#292B2B"/>
<path d="M59.424 3.34399V74H45.504V45.296H13.92V74H0V3.34399H13.92V31.856H45.504V3.34399H59.424Z" fill="#292B2B"/>
</svg>
