<svg id="SvgjsSvg1001" width="288" height="288" xmlns="http://www.w3.org/2000/svg" version="1.1" xmlns:xlink="http://www.w3.org/1999/xlink" xmlns:svgjs="http://svgjs.com/svgjs"><defs id="SvgjsDefs1002"></defs><g id="SvgjsG1008" transform="matrix(1,0,0,1,0,0)"><svg xmlns="http://www.w3.org/2000/svg" viewBox="0 0 329.133 274.067" width="288" height="288"><g transform="translate(-26.85 -281.657) scale(1.33333)"><path fill="#ffffff" d="m 1767,111 h 595.277 V 952.891 H 1767 Z" class="svgShape colore9e9e9-1 selectable"></path><path fill="#ffffff" d="m 55.30848,389.37839 c -0.0622,0.0673 -0.169323,0.14167 -0.324822,0.21597 -0.155501,0.0673 -0.364562,0.10887 -0.634096,0.10887 -0.236705,0 -0.466499,-0.0484 -0.694566,-0.13476 -0.222884,-0.0882 -0.426761,-0.20907 -0.601267,-0.36457 -0.176233,-0.15549 -0.317912,-0.33864 -0.418122,-0.5477 -0.101943,-0.20906 -0.155501,-0.43886 -0.155501,-0.68766 0,-0.33692 0.107118,-0.60127 0.330006,-0.78268 0.222884,-0.17623 0.466501,-0.27126 0.736033,-0.27126 h 0.108856 v -2.81974 c 0,-0.60127 -0.229794,-0.90536 -0.696295,-0.90536 -0.234977,0 -0.425033,0.0673 -0.573622,0.20215 -0.141677,0.13651 -0.215972,0.33866 -0.215972,0.6151 0,0.27645 0.07429,0.49932 0.215972,0.68766 0.148589,0.19004 0.30409,0.33173 0.480322,0.42503 l -0.851794,0.97965 c -0.153773,-0.0742 -0.309272,-0.16932 -0.478595,-0.30409 -0.162411,-0.12785 -0.311,-0.28336 -0.438855,-0.47168 -0.127855,-0.18315 -0.236706,-0.39221 -0.316184,-0.62891 -0.0812,-0.23499 -0.129583,-0.49242 -0.129583,-0.76887 0,-0.30409 0.06048,-0.57361 0.176233,-0.82415 0.107118,-0.2488 0.269534,-0.46476 0.478595,-0.6531 0.20215,-0.18315 0.445767,-0.33173 0.736033,-0.43195 0.283356,-0.10887 0.587444,-0.16241 0.91745,-0.16241 0.749857,0 1.330389,0.20215 1.741601,0.60646 0.4043,0.39911 0.608178,0.97274 0.608178,1.71568 v 2.73853 h 2.36878 v -3.7441 h -1.404682 v -1.29584 h 4.393743 v 1.29584 h -1.316573 v 8.54387 h -1.672488 v -3.4832 h -2.36878 z" class="svgShape color1d1d1b-2 selectable"></path><path fill="#ffffff" d="m 61.671888,383.17048 h -1.314839 v -1.29584 h 4.298712 v 1.29584 h -1.31657 v 8.54387 h -1.667303 z" class="svgShape color1d1d1b-3 selectable"></path><path fill="#ffffff" d="m 69.716423,391.08025 -1.484163,0.89671 -2.881934,-4.33326 c -0.174506,-0.2488 -0.297179,-0.45096 -0.364564,-0.62027 -0.06738,-0.16242 -0.100205,-0.31792 -0.100205,-0.4665 0,-0.2419 0.100205,-0.43714 0.302357,-0.58573 0.203882,-0.14167 0.466502,-0.21596 0.784415,-0.21596 l 0.295451,0.36974 c 0.215966,0.29027 0.480323,0.43195 0.78268,0.43195 0.345558,0 0.628912,-0.12101 0.851791,-0.37666 0.2298,-0.25052 0.343835,-0.62892 0.343835,-1.12133 0,-0.43195 -0.06738,-0.81033 -0.20215,-1.1196 -0.134771,-0.31791 -0.271263,-0.57363 -0.418125,-0.76886 h -3.281052 v -1.29584 h 6.762523 v 1.29584 H 69.31212 c 0.134769,0.17451 0.276449,0.43712 0.418124,0.78268 0.141676,0.34383 0.215975,0.76195 0.215975,1.24746 0,0.43194 -0.0743,0.81723 -0.215975,1.15415 -0.141675,0.33174 -0.330001,0.61509 -0.566713,0.83797 -0.229795,0.22807 -0.499325,0.40431 -0.803415,0.51834 -0.30236,0.12266 -0.60645,0.18314 -0.917448,0.18314 h -0.155504 z" class="svgShape color1d1d1b-4 selectable"></path><path fill="#ffffff" d="m 74.400429,386.43598 c -0.55289,0 -0.95719,0.14167 -1.214628,0.41813 -0.248801,0.27644 -0.376656,0.64791 -0.376656,1.1144 0,0.55981 0.114031,1.10579 0.343825,1.63966 0.22289,0.53389 0.532161,1.10751 0.924363,1.70014 l -1.472066,0.64792 c -0.41121,-0.58571 -0.76195,-1.22153 -1.059128,-1.9092 -0.29027,-0.68247 -0.438859,-1.40987 -0.438859,-2.18736 0,-0.93127 0.262621,-1.62585 0.796508,-2.09235 0.533883,-0.45786 1.242272,-0.69456 2.126896,-0.69456 h 2.401611 v -1.90228 h -6.100784 v -1.29584 h 9.084657 v 1.29584 h -1.316567 v 8.54387 h -1.667306 v -5.27837 z" class="svgShape color1d1d1b-5 selectable"></path><path fill="#ffffff" d="M 80.421732,383.17048 H 79.10517 v -1.29584 h 1.174887 c -0.0812,-0.27126 -0.176234,-0.54771 -0.290265,-0.83797 -0.115769,-0.29027 -0.250528,-0.55289 -0.412942,-0.78959 -0.160682,-0.2367 -0.343825,-0.43195 -0.552886,-0.58745 -0.215974,-0.15549 -0.45786,-0.2298 -0.736033,-0.2298 -0.309275,0 -0.552889,0.0882 -0.727395,0.27127 -0.176233,0.17451 -0.264353,0.43886 -0.264353,0.78268 0,0.29717 0.04838,0.57363 0.14168,0.82934 0.08812,0.25744 0.209065,0.49932 0.35074,0.7153 l -1.161068,0.66173 -0.228067,-0.27644 c -0.209064,-0.27645 -0.385293,-0.59435 -0.526973,-0.95201 -0.141674,-0.35764 -0.215975,-0.72911 -0.215975,-1.11959 0,-0.33173 0.06048,-0.6341 0.176235,-0.91228 0.120943,-0.28335 0.288541,-0.51832 0.511425,-0.72221 0.22288,-0.20215 0.487233,-0.35764 0.796504,-0.47169 0.310998,-0.11398 0.661738,-0.1693 1.053946,-0.1693 0.566709,0 1.059129,0.12266 1.470339,0.37146 0.412937,0.24362 0.756763,0.5598 1.040121,0.93819 0.283355,0.37147 0.52006,0.78268 0.701481,1.22844 0.176232,0.44577 0.317907,0.86389 0.404299,1.26992 h 1.599922 v 1.29584 h -1.314839 v 8.54387 h -1.674221 z" class="svgShape color1d1d1b-6 selectable"></path><path fill="#ffffff" d="M89.53231 387.67134v-4.50086h-2.301401c.141675.16759.269536.36974.385294.62027.114031.2488.167596.52697.167596.83624 0 .68939-.214242 1.22154-.653101 1.59301-.438854.37148-1.000381.58054-1.681126.63411.05356.42502.26262.78959.641004 1.09368.378384.30408.891533.45267 1.53945.45267.464772 0 .863889-.0742 1.193895-.22288.330006-.14859.566709-.31791.708389-.50624m1.674216-4.50086v8.54387H89.53231v-2.47764c-.14168.11576-.378383.22978-.701479.35074-.324819.11577-.749858.17623-1.275099.17623-.473413 0-.945097-.0742-1.404685-.2298-.457857-.14859-.863889-.38529-1.228449-.70147-.357648-.32483-.654828-.74295-.870803-1.24919-.222879-.50624-.336915-1.11268-.336915-1.82107h.371475c.694565 0 1.200803-.10197 1.518716-.311.316185-.20906.47859-.54771.47859-1.01248 0-.25053-.05357-.48551-.162405-.69456-.10713-.21598-.234981-.40604-.376655-.57363H83.10152v-1.29584h9.421577v1.29584zM98.340522 386.05069c0 .49414.120943.84488.364564 1.05394.236704.20215.55289.31101.945092.31101.330011 0 .620272-.0622.870802-.18316.2488-.11398.44404-.26262.59954-.43885v-3.62315h-2.779998zm5.770778-2.88021h-1.31657v8.54387h-1.67421v-3.32771l-3.448646 3.63697-1.409868-1.19388 2.631406-2.10618c-.316186-.0397-.61336-.121-.884623-.24188-.262625-.12786-.499329-.29027-.701479-.49933-.20215-.20387-.357649-.45959-.471685-.76368-.115756-.30409-.169319-.65483-.169319-1.0453v-3.00288h-.931268v-1.29584h8.376262z" class="svgShape color1d1d1b-7 selectable"></path><path fill="#ffffff" d="m 106.5682,381.87464 h 1.53081 v 1.29584 h -1.31483 v 8.54387 h -1.66731 v -8.54387 h -1.31657 v -1.29584 h 1.11442 l -0.4665,-0.35937 c -0.18142,-0.14169 -0.35074,-0.26263 -0.49933,-0.35766 -0.1555,-0.0864 -0.29718,-0.16068 -0.44577,-0.21597 -0.14167,-0.0466 -0.29026,-0.0864 -0.43885,-0.10708 -0.14859,-0.0207 -0.30927,-0.0276 -0.48551,-0.0276 -0.18832,0 -0.37147,0.0207 -0.55289,0.0673 -0.17623,0.0484 -0.33173,0.0951 -0.45267,0.14858 l -0.4043,-1.19391 c 0.15377,-0.0813 0.35765,-0.15549 0.59263,-0.21596 0.24361,-0.0604 0.49414,-0.0951 0.73603,-0.0951 0.47859,0 0.90536,0.10887 1.28892,0.31791 0.37839,0.21598 0.76368,0.54597 1.15416,0.99866 l 0.622,0.69456 h 0.0605 l -0.45959,-1.09368 c -0.26953,-0.6531 -0.58744,-1.1127 -0.94509,-1.37531 -0.36456,-0.27127 -0.81551,-0.40604 -1.36322,-0.40604 -0.12094,0 -0.25571,0.006 -0.39048,0.0207 -0.14167,0.0207 -0.26434,0.0328 -0.36456,0.0535 l -0.17623,-1.34248 c 0.12786,-0.0345 0.28335,-0.0604 0.47341,-0.0882 0.19524,-0.0207 0.35765,-0.0328 0.50451,-0.0328 0.86389,0 1.53945,0.20906 2.02496,0.64101 0.48723,0.42502 0.85179,1.08677 1.10059,1.98349 z" class="svgShape color1d1d1b-8 selectable"></path><path fill="#fefefe" d="m 113.22188,383.17048 v 2.40161 h -2.11826 c -0.29718,0 -0.53388,0.0535 -0.70321,0.17623 -0.1745,0.12101 -0.25571,0.29718 -0.25571,0.53216 0,0.27126 0.0881,0.4665 0.27645,0.59435 0.18314,0.13477 0.41121,0.19524 0.68247,0.19524 h 1.99731 v 1.24227 h -1.72086 c -0.70321,0 -1.05395,0.24362 -1.05395,0.73604 0,0.37839 0.16241,0.6341 0.47341,0.78959 0.31619,0.1555 0.76886,0.23672 1.35631,0.23672 0.55289,0 1.0453,-0.0951 1.45824,-0.27127 0.41813,-0.18142 0.75504,-0.42503 1.01939,-0.72221 v -5.91073 z m 1.42369,7.50374 c -0.26954,0.20906 -0.62719,0.38529 -1.06604,0.53388 -0.44577,0.14859 -0.95719,0.22979 -1.55154,0.22979 -0.51316,0 -0.97966,-0.0553 -1.39778,-0.15549 -0.41813,-0.10887 -0.78268,-0.25744 -1.07986,-0.4596 -0.311,-0.20215 -0.53907,-0.44576 -0.70839,-0.74121 -0.16241,-0.29718 -0.24362,-0.63582 -0.24362,-1.03321 0,-0.35765 0.0812,-0.65483 0.24362,-0.89153 0.16932,-0.2419 0.39221,-0.42504 0.68247,-0.5598 -0.11575,-0.0397 -0.2367,-0.10197 -0.36456,-0.18834 -0.12958,-0.0811 -0.25052,-0.18313 -0.35765,-0.30408 -0.10884,-0.12785 -0.19697,-0.26954 -0.26435,-0.44577 -0.0674,-0.16932 -0.0933,-0.36456 -0.0933,-0.58053 0,-0.31101 0.0536,-0.57362 0.16761,-0.79651 0.11575,-0.22288 0.26434,-0.4043 0.45267,-0.54597 0.19524,-0.14169 0.41812,-0.25054 0.66865,-0.31792 0.2488,-0.0673 0.51833,-0.10018 0.79651,-0.10018 h 1.05221 v -1.14725 h -3.79247 v -1.29584 h 9.90017 v 1.29584 h -1.30965 v 8.69937 h -1.73469 z" class="svgShape color1d1d1b-9 selectable"></path><path fill="#ffffff" d="m 114.13242,378.23593 c 0.19005,-0.10196 0.41985,-0.18141 0.7032,-0.24878 0.29027,-0.0622 0.58054,-0.0882 0.87771,-0.0882 0.79651,0 1.45652,0.19523 1.97658,0.59953 0.52697,0.40603 0.97274,0.9451 1.3373,1.62757 l 0.92436,1.7485 h 1.73469 v 1.29585 h -1.31656 v 8.54387 h -1.67422 v -8.54387 h -1.30965 v -1.29585 h 1.24918 l -0.58745,-0.8846 c -0.33,-0.50626 -0.65482,-0.88463 -0.97792,-1.12825 -0.33173,-0.2488 -0.74294,-0.36974 -1.24919,-0.36974 -0.20906,0 -0.41121,0.019 -0.60644,0.0673 -0.20388,0.0466 -0.3853,0.10017 -0.5408,0.16068 z" class="svgShape color1d1d1b-10 selectable"></path><path fill="#ffffff" d="m 122.69183,383.17048 h -1.31656 v -1.29584 h 1.20771 c -0.0604,-0.10197 -0.11398,-0.2367 -0.16241,-0.3922 -0.0466,-0.1486 -0.0744,-0.33002 -0.0744,-0.5408 0,-0.39047 0.10197,-0.74813 0.29719,-1.06603 0.19696,-0.3162 0.4734,-0.58745 0.82415,-0.81033 0.34383,-0.22115 0.76195,-0.39049 1.24919,-0.51143 0.4855,-0.12267 1.01074,-0.17622 1.57918,-0.17622 0.84315,0 1.61893,0.10197 2.32732,0.3179 0.70839,0.20906 1.34939,0.4855 1.92302,0.82242 0.58052,0.34383 1.08676,0.72913 1.52562,1.15416 0.43886,0.43195 0.81033,0.85698 1.10751,1.29583 l 0.10708,0.16932 -1.12652,0.69458 -0.22979,-0.27644 c -0.29027,-0.34385 -0.62027,-0.68076 -0.99175,-1.01249 -0.37147,-0.33692 -0.78959,-0.63409 -1.24918,-0.89671 -0.45786,-0.26435 -0.95719,-0.48033 -1.49799,-0.64792 -0.53907,-0.16241 -1.12651,-0.24362 -1.75369,-0.24362 -0.7775,0 -1.36322,0.14167 -1.76924,0.43195 -0.3974,0.29027 -0.60127,0.66173 -0.60127,1.11268 0,0.12267 0.006,0.2298 0.0138,0.31101 0.0138,0.0813 0.0415,0.16932 0.0811,0.26434 h 1.51182 v 1.29584 h -1.30967 v 8.54387 h -1.67249 z" class="svgShape color1d1d1b-11 selectable"></path><path fill="#ffffff" d="m 127.7525,386.90247 c 0.10887,-0.10197 0.20906,-0.27644 0.29718,-0.51314 0.0882,-0.23671 0.13475,-0.52006 0.13475,-0.85007 0,-0.48723 -0.0864,-0.92608 -0.25571,-1.32348 -0.16931,-0.39912 -0.39221,-0.74294 -0.66174,-1.0453 h -1.89709 v -1.29584 h 9.29372 v 1.29584 h -1.31485 v 8.54387 h -1.6673 v -8.54387 h -2.67979 c 0.19524,0.21425 0.39221,0.55289 0.58745,1.00556 0.19523,0.45786 0.29718,1.00557 0.29718,1.63966 0,0.48552 -0.0673,0.91746 -0.19696,1.29583 -0.12786,0.37838 -0.29546,0.69458 -0.50626,0.95201 -0.21596,0.25572 -0.45784,0.45095 -0.7412,0.58572 -0.28336,0.1365 -0.58054,0.20388 -0.89154,0.20388 -0.45959,0 -0.84315,-0.14167 -1.16106,-0.41294 -0.3231,-0.27645 -0.47859,-0.63409 -0.47859,-1.07295 0,-0.34382 0.10197,-0.60645 0.31618,-0.79651 0.21078,-0.19523 0.45267,-0.29026 0.71702,-0.29026 z" class="svgShape color1d1d1b-12 selectable"></path><path fill="#ffffff" d="m 139.61714,386.40315 c -0.1745,-0.18315 -0.37665,-0.32482 -0.60645,-0.43195 -0.22288,-0.10197 -0.4786,-0.1555 -0.76886,-0.1555 -0.41293,0 -0.76368,0.12101 -1.05394,0.36457 -0.29027,0.24189 -0.43195,0.60645 -0.43195,1.09196 0,0.48722 0.12786,0.85871 0.39221,1.12132 0.26262,0.26263 0.61337,0.39221 1.0453,0.39221 0.18315,0 0.36457,-0.0276 0.53389,-0.0813 0.16932,-0.0622 0.31618,-0.14168 0.44576,-0.25744 0.13477,-0.11398 0.23499,-0.26263 0.31619,-0.44577 0.0882,-0.18833 0.12785,-0.4043 0.12785,-0.65482 z m 1.62066,5.3112 h -1.63275 v -2.16664 c -0.13477,0.1745 -0.35074,0.31618 -0.63409,0.43195 -0.29027,0.11398 -0.622,0.16931 -0.99347,0.16931 -0.39048,0 -0.76196,-0.0622 -1.11269,-0.19005 -0.35075,-0.12786 -0.66175,-0.32309 -0.93128,-0.57363 -0.27126,-0.2557 -0.48032,-0.55979 -0.64101,-0.93126 -0.1624,-0.36457 -0.2367,-0.78961 -0.2367,-1.27511 0,-0.44576 0.0742,-0.83797 0.22288,-1.17488 0.14859,-0.34383 0.35074,-0.62719 0.59954,-0.85007 0.25744,-0.2298 0.54771,-0.39912 0.88462,-0.51315 0.33692,-0.11398 0.68939,-0.16932 1.05913,-0.16932 0.35247,0 0.68248,0.0553 1.00038,0.1624 0.30928,0.10887 0.57363,0.26435 0.78269,0.47342 v -1.93684 h -5.25072 v -1.29584 h 12.32943 v 1.29584 h -5.44596 v 2.05778 c 0.16932,-0.22287 0.41121,-0.4043 0.73604,-0.5477 0.33,-0.14169 0.70147,-0.20906 1.1265,-0.20906 0.37839,0 0.73604,0.0622 1.06605,0.18314 0.33173,0.11398 0.62199,0.29027 0.86388,0.52005 0.25053,0.22808 0.44577,0.51317 0.58744,0.85699 0.1486,0.33691 0.21598,0.72221 0.21598,1.14724 0,0.4786 -0.0742,0.89671 -0.2367,1.26128 -0.16069,0.35764 -0.37666,0.65482 -0.64792,0.89154 -0.27646,0.23671 -0.59264,0.40429 -0.95028,0.52006 -0.36456,0.11398 -0.74985,0.1745 -1.16106,0.1745 -0.11577,0 -0.25745,-0.006 -0.41813,-0.0328 -0.16932,-0.0207 -0.29027,-0.0414 -0.37147,-0.0604 l 0.18142,-1.31657 c 0.15549,0.0328 0.3179,0.0466 0.48031,0.0466 0.38357,0 0.71531,-0.12101 0.99867,-0.36456 0.28335,-0.24189 0.42503,-0.61337 0.42503,-1.11961 0,-0.43193 -0.12267,-0.77059 -0.36457,-1.00556 -0.24361,-0.2367 -0.58053,-0.35766 -1.01246,-0.35766 -0.49243,0 -0.87081,0.15551 -1.12652,0.45786 -0.25744,0.29718 -0.39221,0.71013 -0.39221,1.23538 z" class="svgShape color1d1d1b-13 selectable"></path><path fill="#ffffff" d="M147.41288 383.17048h-1.23536v-1.29584h.95891c-.14167-.25743-.33691-.53388-.58053-.82415-.24189-.28335-.53215-.54598-.86388-.78959-.33692-.2367-.7153-.43195-1.14034-.59435-.42503-.16241-.88462-.23672-1.39086-.23672-.41122 0-.76195.0484-1.04531.14169-.28336.10196-.51314.22978-.69629.3922-.18142.1555-.30928.34382-.3974.55979-.0813.22289-.121.43887-.121.66866 0 .33001.0535.59436.1555.7896l-1.26992.38529-.1555-.20387c-.14167-.16069-.25571-.35766-.33692-.57881-.0882-.21598-.12785-.44577-.12785-.68938 0-.37839.0882-.74295.25571-1.08678.16932-.34382.41812-.65483.74294-.91054.3231-.26435.72914-.47341 1.21464-.62199.4855-.14687 1.04011-.22117 1.65348-.22117.81032 0 1.52562.12786 2.15973.38357.63408.25744 1.19388.57362 1.67421.95892.4786.38529.87771.7965 1.2008 1.23536.31792.44577.55289.85698.7084 1.24227h1.54635v1.29584h-1.23536v8.54387h-1.67421zM159.76476 386.7798c.3974 0 .74123-.0466 1.02458-.14167.28336-.0933.52006-.21597.70321-.35765v-3.11h-3.01671c.13476.17451.27646.43712.41813.78268.14168.34383.21597.76195.21597 1.24746 0 .5477-.11577 1.01938-.33864 1.42541.29717.10018.6289.14686.99346.14686m-.88462 4.30736l-1.48415.89671-2.89577-4.30562c-.1624-.24362-.28335-.44576-.35765-.60817-.0673-.1607-.10887-.30928-.10887-.45788 0-.25743.10887-.45267.311-.59434.20906-.14168.47169-.20906.78959-.20906l.27644.37147c.11577.14167.23672.2488.35766.32309.12101.0742.27644.10887.45269.10887.32999 0 .60644-.13476.84314-.39911.2298-.26954.34383-.65483.34383-1.14725 0-.43194-.0673-.81033-.20215-1.11959-.12785-.31792-.26954-.57363-.41812-.76887h-3.24649v-1.29584h10.94029v1.29584h-1.31657v8.54387h-1.67249v-3.78038c-.16242.0882-.37148.14858-.61509.19006-.2488.0397-.55289.0604-.91745.0604-.35765 0-.72912-.0535-1.11442-.16932-.37666-.11398-.70147-.25572-.97101-.43195-.3922.23671-.81724.35074-1.26819.35074-.0622 0-.11577 0-.1555-.0115zM161.28866 379.65963c0-.2488.10197-.4786.29718-.68766.19698-.20906.44578-.3179.74295-.3179.31099 0 .5598.10887.74294.3179.18834.20906.27645.43886.27645.68766 0 .27644-.0951.52005-.28336.72222-.19005.19696-.43885.29717-.73603.29717-.29717 0-.54597-.10018-.74295-.29717-.19523-.20217-.29718-.44578-.29718-.72222" class="svgShape color1d1d1b-14 selectable"></path><path fill="#ffffff" d="m 171.59486,386.34095 c 1.03322,-0.0864 1.8159,-0.31619 2.34979,-0.68074 0.52524,-0.37148 0.7965,-0.85007 0.7965,-1.44443 0,-0.35074 -0.0882,-0.60127 -0.25744,-0.76886 -0.16759,-0.16241 -0.38357,-0.24362 -0.64101,-0.24362 -0.26952,0 -0.4786,0.0811 -0.62718,0.23672 -0.14858,0.15549 -0.2298,0.35073 -0.2298,0.59953 0,0.19006 0.0466,0.35247 0.13477,0.48724 0.0882,0.13475 0.18832,0.2488 0.30409,0.33 l -1.06604,0.64792 c -0.20906,-0.11398 -0.41293,-0.311 -0.60818,-0.58054 -0.19524,-0.26263 -0.29027,-0.60645 -0.29027,-1.0263 0,-0.29546 0.0535,-0.57362 0.17624,-0.81551 0.12088,-0.25052 0.28335,-0.4665 0.49932,-0.64101 0.22289,-0.18313 0.47169,-0.32481 0.76887,-0.42503 0.29718,-0.10887 0.62199,-0.16241 0.98484,-0.16241 0.3922,0 0.74294,0.0673 1.05394,0.18832 0.31618,0.12786 0.58744,0.30409 0.81033,0.53389 0.22116,0.22289 0.39047,0.49241 0.50624,0.78959 0.12101,0.30409 0.18141,0.62719 0.18141,0.9641 0,0.40604 -0.0811,0.78269 -0.2367,1.12825 -0.15551,0.34383 -0.37147,0.66173 -0.66174,0.93817 -0.28854,0.27645 -0.64792,0.50624 -1.07295,0.69458 -0.43195,0.18142 -0.91054,0.311 -1.44962,0.38529 0.0795,0.29718 0.28854,0.57362 0.62719,0.81551 0.33693,0.25053 0.82934,0.37147 1.47726,0.37147 0.52697,0 0.99865,-0.0813 1.43059,-0.25571 0.42677,-0.16932 0.74295,-0.38529 0.95201,-0.65483 v -5.8779 h 2.98388 v 1.29584 h -1.30967 v 8.54387 h -1.67421 v -2.30832 c -0.17451,0.14859 -0.47169,0.29026 -0.88981,0.43194 -0.41985,0.1486 -0.91917,0.21598 -1.49279,0.21598 -0.83626,0 -1.56537,-0.16932 -2.17874,-0.50624 -0.62199,-0.34383 -1.08677,-0.82416 -1.39777,-1.45825 -0.30408,0.0882 -0.65482,0.12785 -1.03322,0.12785 -0.39047,0 -0.76194,-0.0604 -1.11268,-0.16759 -0.35073,-0.11577 -0.66173,-0.27125 -0.93127,-0.4665 -0.37838,0.20215 -0.78959,0.311 -1.23537,0.311 h -0.15549 l 2.59858,3.12383 -1.48416,0.97274 -3.06509,-4.37992 c -0.1624,-0.23671 -0.27644,-0.42503 -0.33,-0.57363 -0.0604,-0.14167 -0.0882,-0.28335 -0.0882,-0.43195 0,-0.25743 0.10197,-0.45267 0.30409,-0.59434 0.20215,-0.14168 0.45095,-0.20906 0.74813,-0.20906 l 0.27645,0.37147 c 0.19696,0.2557 0.4665,0.38357 0.81033,0.38357 0.32482,0 0.60817,-0.12101 0.83797,-0.37666 0.23497,-0.25052 0.35073,-0.62892 0.35073,-1.12133 0,-0.41121 -0.0604,-0.77577 -0.17624,-1.09887 -0.121,-0.31791 -0.24878,-0.58053 -0.39738,-0.78959 h -3.29487 v -1.29584 h 6.34439 v 1.29584 h -1.4375 c 0.14167,0.17451 0.29027,0.44403 0.43885,0.79478 0.1486,0.35765 0.22289,0.77059 0.22289,1.23536 0,0.28335 -0.0276,0.5477 -0.0951,0.77577 -0.0604,0.23671 -0.14858,0.45267 -0.26261,0.66174 0.13475,0.0553 0.29717,0.0951 0.47858,0.12958 0.19006,0.0397 0.3853,0.0535 0.59436,0.0535 0.12101,0 0.24362,-0.006 0.37147,-0.0207 0.12101,-0.0138 0.24362,-0.0466 0.35074,-0.088 0,-0.0466 0,-0.10018 -0.006,-0.16069 -0.006,-0.0622 -0.006,-0.12267 -0.006,-0.17624 z" class="svgShape color1d1d1b-15 selectable"></path><path fill="#ffffff" d="m 181.49676,383.17048 h -1.30965 v -1.29584 h 4.29871 v 1.29584 h -1.31484 v 8.54387 h -1.67422 z" class="svgShape color1d1d1b-16 selectable"></path><path fill="#ffffff" d="M189.8713 385.80189v-2.63141h-5.69476v-1.29584h8.67864v1.29584h-1.31657v8.54387h-1.66731v-4.56308h-2.72643l.0811 1.30967c-.0397.0535-.14168.11398-.29026.18141-.1486.0691-.3231.10197-.53216.10197-.47341 0-.85698-.16242-1.16107-.4786-.29718-.32482-.44576-.72911-.44576-1.22845 0-.37147.10708-.66865.32999-.89845.22289-.22287.56672-.3369 1.03322-.3369zM203.0197 381.87464h2.98905v1.29584h-1.31484v8.54387h-1.67421v-1.90403c-.17624.13477-.49242.27127-.952.39912-.4596.13477-.99867.20215-1.61376.20215-1.05221 0-1.88155-.22287-2.48281-.66173-.60818-.44576-.90536-1.04531-.90536-1.8159 0-.41812.12959-.77576.39221-1.05913.26261-.28335.58744-.47168.96583-.58053-.20389-.0744-.40604-.18142-.60127-.311-.19525-.12786-.37147-.29027-.52007-.47169-.14858-.18832-.26952-.39911-.36455-.63409-.0864-.22979-.13477-.49933-.13477-.80342 0-.30409.0535-.59436.16932-.86388.11398-.27645.27645-.50624.49241-.70839.21598-.20215.4786-.35766.78961-.47341.31099-.11398.66173-.1676 1.05221-.1676.40602 0 .75677.0535 1.06086.1745.30235.12267.55979.27645.76885.46651.20216.19524.35766.41811.4596.66173.10708.24881.15377.49933.15377.74122 0 .31791-.0673.59435-.20906.83107-.13477.2298-.27644.39738-.42504.50624l-1.22153-.50624c.0951-.0882.17623-.19698.24361-.32483.0604-.13477.10018-.28336.10018-.44576 0-.23498-.0742-.42504-.21598-.56672-.14687-.14167-.35074-.20906-.62027-.20906-.23671 0-.44577.0813-.62718.25744-.18316.16759-.26954.42503-.26954.76886 0 .52007.19524.93128.58572 1.22154.39221.29718.89845.44577 1.51872.44577h.85007v1.30965h-1.4237c-.41121 0-.72222.0795-.93126.22807-.20216.14858-.31101.33864-.31101.58053 0 .30409.14858.55462.43885.74295.28336.18315.7153.27644 1.29584.27644.47341 0 .9451-.0673 1.40469-.20215.45958-.13477.81723-.33691 1.08677-.60127z" class="svgShape color1d1d1b-17 selectable"></path><path fill="#ffffff" d="m 207.01432,383.17048 h -1.31485 v -1.29584 h 4.29871 v 1.29584 h -1.31655 v 8.54387 h -1.66731 z" class="svgShape color1d1d1b-18 selectable"></path><path fill="#ffffff" d="m 215.06058,391.08025 -1.48589,0.89671 -2.88193,-4.33326 c -0.17451,-0.2488 -0.29718,-0.45096 -0.36456,-0.62027 -0.0673,-0.16242 -0.10018,-0.31792 -0.10018,-0.4665 0,-0.2419 0.10018,-0.43714 0.30237,-0.58573 0.20387,-0.14167 0.45958,-0.21596 0.78441,-0.21596 l 0.29027,0.36974 c 0.21597,0.29027 0.4786,0.43195 0.78959,0.43195 0.34383,0 0.62718,-0.12101 0.85007,-0.37666 0.22978,-0.25052 0.34383,-0.62892 0.34383,-1.12133 0,-0.43195 -0.0673,-0.81033 -0.20216,-1.1196 -0.13476,-0.31791 -0.27644,-0.57363 -0.41812,-0.76886 h -3.28105 v -1.29584 h 6.76251 v 1.29584 h -1.79515 c 0.13477,0.17451 0.27645,0.43712 0.41812,0.78268 0.14168,0.34383 0.21597,0.76195 0.21597,1.24746 0,0.43194 -0.0742,0.81723 -0.21597,1.15415 -0.14167,0.33174 -0.33,0.61509 -0.5667,0.83797 -0.2298,0.22807 -0.49933,0.40431 -0.80342,0.51834 -0.30237,0.12266 -0.61337,0.18314 -0.91745,0.18314 h -0.15551 z" class="svgShape color1d1d1b-19 selectable"></path><path fill="#ffffff" d="m 221.41708,386.55693 c -0.1555,-0.21598 -0.37666,-0.40431 -0.66693,-0.55981 -0.29026,-0.1624 -0.61509,-0.24188 -0.97273,-0.24188 -0.52007,0 -0.92436,0.12785 -1.23537,0.39047 -0.30408,0.25744 -0.45267,0.63409 -0.45267,1.14033 0,0.56153 0.15549,0.96583 0.47341,1.21464 0.3179,0.25743 0.73604,0.37837 1.26128,0.37837 0.43886,0 0.81723,-0.13476 1.12823,-0.39738 0.30928,-0.27127 0.46478,-0.60819 0.46478,-1.00557 z m -1.99731,-2.14591 c 0.4855,0 0.88462,0.0673 1.19389,0.20216 0.30409,0.12958 0.56844,0.28507 0.78959,0.45958 v -1.90228 h -5.72931 v -1.29584 h 8.71319 v 1.29584 h -1.31657 v 8.54387 h -1.66731 v -2.07162 c -0.13476,0.12787 -0.35073,0.26262 -0.64791,0.39739 -0.29026,0.13477 -0.68075,0.20215 -1.16625,0.20215 -0.43194,0 -0.84489,-0.0673 -1.23536,-0.19524 -0.39221,-0.12785 -0.73604,-0.31791 -1.03322,-0.56671 -0.29026,-0.25744 -0.52006,-0.57362 -0.69457,-0.952 -0.16931,-0.3853 -0.25744,-0.82416 -0.25744,-1.31657 0,-0.89672 0.28337,-1.59301 0.8449,-2.07852 0.5667,-0.47859 1.29582,-0.72221 2.20637,-0.72221" class="svgShape color1d1d1b-20 selectable"></path><path fill="#ffffff" d="m 225.3927,383.17048 h -1.31657 v -1.29584 h 4.30045 v 1.29584 h -1.30967 v 8.54387 h -1.67421 z" class="svgShape color1d1d1b-21 selectable"></path><path fill="#ffffff" d="m 230.65032,388.66308 c -0.19524,-0.11398 -0.3922,-0.24879 -0.59434,-0.41121 -0.20217,-0.1555 -0.38357,-0.33692 -0.55291,-0.54079 -0.17622,-0.20215 -0.31099,-0.41813 -0.41811,-0.66001 -0.10887,-0.24362 -0.16242,-0.49933 -0.16242,-0.77059 0,-0.58053 0.18834,-1.05222 0.57363,-1.4306 0.37838,-0.37838 0.96583,-0.56671 1.76233,-0.56671 h 2.03706 v -1.11269 h -5.22999 v -1.29584 h 8.38836 v 1.29584 h -1.48416 v 2.44826 h -3.42101 c -0.29717,0 -0.52696,0.0622 -0.68938,0.19005 -0.1555,0.12786 -0.2367,0.311 -0.2367,0.55289 0,0.16241 0.0484,0.31792 0.13477,0.45959 0.0951,0.14859 0.21078,0.26954 0.34555,0.37147 0.27644,-0.0811 0.53907,-0.13476 0.7896,-0.16931 0.2488,-0.0276 0.48551,-0.0466 0.72912,-0.0466 0.9641,0 1.72087,0.21596 2.25302,0.64099 0.5408,0.43195 0.80341,0.99867 0.80341,1.71397 0,0.70147 -0.27643,1.27509 -0.84315,1.72086 -0.55979,0.45268 -1.38395,0.67556 -2.4638,0.67556 -0.41123,0 -0.81033,-0.0345 -1.18699,-0.10887 -0.37147,-0.0742 -0.72221,-0.16932 -1.04703,-0.29717 -0.33001,-0.12101 -0.6272,-0.26263 -0.88981,-0.41121 -0.27126,-0.15551 -0.50106,-0.31792 -0.70321,-0.4786 l 0.76368,-1.16108 c 0.42503,0.33692 0.8898,0.59955 1.39604,0.79651 0.51316,0.18833 1.04705,0.28336 1.60684,0.28336 0.57363,0 0.99865,-0.0951 1.26819,-0.28336 0.26435,-0.19696 0.39912,-0.45268 0.39912,-0.77058 0,-0.30928 -0.12786,-0.54598 -0.3853,-0.7084 -0.25571,-0.16759 -0.62028,-0.24879 -1.08678,-0.24879 -0.30926,0 -0.61335,0.0259 -0.91053,0.0811 -0.29718,0.0466 -0.6151,0.12786 -0.9451,0.24189" class="svgShape color1d1d1b-22 selectable"></path><path fill="#ffffff" d="m 142.31075,334.66311 c 0,0 -46.150683,-31.86887 -86.820854,-14.13151 0,0 43.721428,-12.00805 86.820854,27.55634 43.09943,-39.56439 89.30541,-27.55634 89.30541,-27.55634 -45.55807,-19.05394 -89.30541,14.13151 -89.30541,14.13151" class="svgShape color6c1b85-23 selectable"></path><path fill="#ffffff" d="m 137.23626,327.01769 c 0,0 -31.71509,-23.5548 -72.850034,-14.44423 L 52.763462,298.75814 c 0,0 51.503338,-4.71164 84.472798,28.25955" class="svgShape color6c1b85-24 selectable"></path><path fill="#ffffff" d="M137.91701 325.06011c0 0-22.73065-29.80418-64.865974-29.71778L61.455914 279.3552c0 0 51.313286 6.43078 76.461096 45.70491M149.86978 327.01769c0 0 31.72028-23.5548 72.85695-14.44423l11.61586-13.81532c0 0-51.49643-4.71164-84.47281 28.25955" class="svgShape color6c1b85-25 selectable"></path><path fill="#ffffff" d="M149.19422 325.06011c0 0 22.73238-29.80418 64.8608-29.71778l11.59339-15.98713c0 0-51.31329 6.43078-76.45419 45.70491M183.71695 250.05035c2.03879-8.09292 2.6988-16.88039 1.8971-25.95122-9.07083 2.7126-17.26568 6.77634-24.20962 11.93203 1.8971 6.18198 2.89575 12.45209 2.94241 18.6479 6.0334-2.48281 12.56095-4.02918 19.37011-4.62871M154.87169 287.98026c-2.26856.45786-4.36091.66693-6.1768.74122 1.29584.71011 2.79554 1.4185 4.47495 2.04568 8.21385 3.06336 16.66442 2.74027 25.11326-.95891 13.70818-5.99885 25.50546-17.70973 33.38931-33.08349-8.42983-2.34806-16.84584-3.3208-24.8852-2.92859-1.95065 6.64676-4.81186 12.82875-8.53694 18.30926-7.24285 10.67077-16.71108 14.52371-23.37858 15.87483M125.58586 235.94477c-6.9163-5.11596-15.06968-9.15204-24.09387-11.84564-.79651 9.07083-.13476 17.8583 1.8971 25.95122 6.75561.59263 13.23478 2.11825 19.23535 4.56825.0466-6.20965 1.05913-12.48492 2.96142-18.67383M108.85578 272.10543c-3.7199-5.48742-6.58111-11.6625-8.53868-18.30926-8.030712-.39221-16.44672.58053-24.876553 2.92859 7.882131 15.37376 19.681125 27.08464 33.380673 33.08349 8.45748 3.69918 16.90631 4.02227 25.12017.95891 1.68113-.62718 3.17912-1.33557 4.47495-2.04568-1.8159-.0742-3.90824-.28336-6.17507-.74122-6.66751-1.35112-16.14437-5.20406-23.38549-15.87483M143.39061 248.6664c.0535.0813.10887.16932.16241.24879.0604-.0795.10708-.16758.16932-.24879 3.53503-5.21098 7.9426-9.92781 13.05855-14.05203-2.84737-8.13265-7.33614-16.07006-13.29525-23.37165-5.9401 7.27568-10.42023 15.17853-13.27624 23.27662 5.16951 4.15185 9.61854 8.89634 13.18121 14.14706" class="svgShape color6c1b85-26 selectable"></path><path fill="#ffffff" d="m 157.04352,274.19087 c 0.0691,7.45191 -5.92456,13.53886 -13.37646,13.60625 -7.45019,0.0604 -13.53888,-5.92456 -13.60626,-13.37645 -0.0604,-7.45019 5.92627,-13.5458 13.37646,-13.60626 7.4519,-0.0673 13.54578,5.92627 13.60626,13.37646" class="svgShape colorffad4a-27 selectable"></path><path fill="#ffffff" d="m 85.240507,363.24574 h 1.119603 v -9.17796 h -1.119603 z m 3.123825,0 h 1.114417 v -9.17796 h -1.114417 z m 7.087346,-3.64389 c 0.05356,0.006 0.08812,0.0138 0.114031,0.0138 h 0.115768 c 0.526969,0 0.971006,-0.12958 1.34248,-0.38529 0.250532,0.16932 0.540797,0.311 0.877712,0.42503 0.330006,0.11577 0.668653,0.17624 0.998654,0.17624 0.689387,0 1.221547,-0.0951 1.599927,-0.29027 v 3.70436 h 1.1196 v -8.09119 h 1.28201 v -0.91918 h -9.818962 v 0.91918 h 3.144555 c 0.16241,0.20215 0.310999,0.45787 0.438854,0.76887 0.134766,0.3179 0.202151,0.68765 0.202151,1.11959 0,0.51316 -0.127856,0.91226 -0.383567,1.19563 -0.257438,0.29026 -0.573623,0.43193 -0.945097,0.43193 -0.190054,0 -0.343826,-0.0276 -0.473409,-0.0882 -0.120944,-0.0535 -0.241886,-0.16241 -0.357653,-0.311 l -0.297175,-0.38357 c -0.20215,0 -0.376655,0.0466 -0.532156,0.1555 -0.148589,0.10708 -0.229798,0.25571 -0.229798,0.45786 0,0.10197 0.02763,0.21598 0.0812,0.33174 0.05357,0.12101 0.155504,0.29027 0.310999,0.51142 l 2.759262,4.043 0.97274,-0.641 z m 2.693608,-0.83105 c -0.183148,-0.0397 -0.357653,-0.0933 -0.533887,-0.1676 0.269535,-0.42503 0.404301,-0.92436 0.404301,-1.5049 0,-0.42502 -0.07948,-0.81723 -0.228067,-1.16798 -0.1555,-0.34383 -0.30409,-0.60818 -0.459584,-0.77577 h 3.172201 v 3.1722 c -0.17624,0.14168 -0.41813,0.26263 -0.708392,0.35766 -0.290269,0.0933 -0.634094,0.14167 -1.033211,0.14167 -0.229794,0 -0.438855,-0.0138 -0.613361,-0.0553 m 5.763864,4.47494 h 1.11269 v -8.09119 h 1.28893 v -0.91918 h -3.69227 v 0.91918 h 1.29065 z m 6.57247,0 h 1.12133 v -8.09119 h 1.14033 v -0.91918 h -1.28892 c -0.0553,-0.121 -0.095,-0.24188 -0.11577,-0.36455 -0.019,-0.11398 -0.0259,-0.23499 -0.0259,-0.35075 0,-0.39738 0.1555,-0.73431 0.46477,-1.00556 0.311,-0.26954 0.79651,-0.4043 1.45134,-0.4043 0.47168,0 0.92436,0.0811 1.37703,0.24879 0.44577,0.16242 0.8639,0.3784 1.25438,0.63582 0.3922,0.25571 0.74294,0.54599 1.06085,0.85698 0.31618,0.31619 0.58053,0.62029 0.78959,0.93128 l 0.18142,0.25571 0.83107,-0.45786 -0.12786,-0.19696 c -0.19006,-0.29718 -0.45959,-0.63411 -0.80342,-1.00558 -0.34556,-0.37147 -0.74295,-0.72221 -1.20944,-1.05912 -0.45786,-0.33001 -0.97793,-0.61337 -1.55846,-0.84315 -0.57363,-0.2298 -1.18699,-0.33866 -1.8349,-0.33866 -0.96583,0 -1.71569,0.19006 -2.24784,0.56844 -0.53388,0.38357 -0.80342,0.90364 -0.80342,1.55846 0,0.18832 0.0346,0.37838 0.0812,0.55289 0.0536,0.17624 0.10711,0.31791 0.16932,0.41812 h -1.18871 v 0.91918 h 1.28201 z m 4.22615,-6.55346 c -0.33865,0.10886 -0.62891,0.27125 -0.88462,0.48031 -0.25054,0.20907 -0.44577,0.46477 -0.58745,0.77578 -0.13477,0.311 -0.20215,0.66866 -0.20215,1.07986 0,0.45268 0.0743,0.84316 0.22288,1.18008 0.1555,0.33864 0.36457,0.62891 0.62719,0.85871 0.25571,0.23497 0.5598,0.4112 0.90363,0.53215 0.34555,0.11577 0.71011,0.17623 1.10059,0.17623 0.54771,0 0.97965,-0.0882 1.29584,-0.25744 0.3179,-0.1745 0.5667,-0.34383 0.73603,-0.51315 v 2.24093 h 1.11269 v -8.09119 h 1.29064 v -0.91918 h -8.00479 v 0.91918 h 5.60146 v 2.24611 c -0.18833,-0.22115 -0.45959,-0.42503 -0.81033,-0.60644 -0.34383,-0.17624 -0.77577,-0.26954 -1.28893,-0.26954 -0.40429,0 -0.76886,0.0535 -1.11268,0.1676 m 3.21194,2.55193 c 0,0.21597 -0.0466,0.42502 -0.14168,0.61336 -0.095,0.19006 -0.22289,0.35764 -0.3922,0.49241 -0.1676,0.14168 -0.36457,0.25052 -0.58054,0.33173 -0.22288,0.0811 -0.45095,0.12101 -0.70148,0.12101 -0.58053,0 -1.04531,-0.12785 -1.38395,-0.38356 -0.34383,-0.25744 -0.51833,-0.71013 -0.51833,-1.35112 0,-0.52525 0.16759,-0.93129 0.50624,-1.18699 0.34382,-0.26435 0.78268,-0.39912 1.32175,-0.39912 0.43194,0 0.81724,0.10887 1.14724,0.33174 0.33173,0.22288 0.58054,0.46478 0.74295,0.72912 z m 8.71318,4.00153 h 1.10059 v -8.09119 h 1.28202 v -0.91918 h -8.97754 v 0.91918 h 3.8875 v 1.14033 h -1.25436 c -0.25053,0 -0.48551,0.0328 -0.70839,0.0951 -0.22289,0.0604 -0.42504,0.15377 -0.59436,0.28854 -0.17623,0.12959 -0.311,0.29026 -0.41121,0.49414 -0.10194,0.19524 -0.14859,0.43194 -0.14859,0.70148 0,0.21598 0.0328,0.40431 0.0933,0.56672 0.0622,0.16241 0.14168,0.30408 0.23671,0.41811 0.095,0.11577 0.19524,0.20216 0.30409,0.27645 0.11403,0.0673 0.21597,0.12958 0.311,0.16241 -0.2367,0.12786 -0.43194,0.29026 -0.58053,0.49933 -0.14859,0.21597 -0.22289,0.47341 -0.22289,0.77577 0,0.36456 0.0743,0.68248 0.21598,0.952 0.14168,0.26954 0.34382,0.49933 0.60645,0.69458 0.26435,0.19006 0.58054,0.33173 0.95201,0.42676 0.37147,0.0933 0.78268,0.14168 1.22845,0.14168 0.60127,0 1.12651,-0.0882 1.5861,-0.27127 0.45268,-0.18142 0.81724,-0.39739 1.09368,-0.65483 z m -0.0207,-8.09119 v 5.44595 c -0.26261,0.36457 -0.61336,0.65484 -1.03839,0.87772 -0.43195,0.22979 -0.93819,0.33692 -1.51872,0.33692 -0.62199,0 -1.09368,-0.0813 -1.4306,-0.25571 -0.33173,-0.16934 -0.49933,-0.47341 -0.49933,-0.89845 0,-0.27644 0.0864,-0.49241 0.26262,-0.65483 0.17451,-0.1555 0.44577,-0.23498 0.81033,-0.23498 h 1.70014 v -0.92608 h -1.98349 c -0.27818,0 -0.50624,-0.0742 -0.68939,-0.21598 -0.18141,-0.14168 -0.26953,-0.35073 -0.26953,-0.61335 0,-0.25744 0.0812,-0.45269 0.2557,-0.58055 0.16933,-0.12785 0.40604,-0.19523 0.70322,-0.19523 h 2.09752 v -2.08543 z m 3.40891,8.09119 h 1.1127 v -8.09119 h 1.28892 v -0.91918 h -3.69055 v 0.91918 h 1.28893 z m 13.63907,-8.09119 v -0.91918 h -8.35553 v 0.91918 h 2.4379 c 0.18141,0.18833 0.32999,0.39739 0.44404,0.62028 0.10887,0.22979 0.16932,0.47859 0.16932,0.74294 0,0.43194 -0.14167,0.75504 -0.41812,0.97101 -0.28336,0.21597 -0.78268,0.32483 -1.49799,0.32483 h -0.41294 c 0.006,0.57362 0.10887,1.08677 0.29718,1.5187 0.19006,0.43886 0.43886,0.80169 0.74295,1.09887 0.30408,0.29027 0.65482,0.51315 1.04531,0.65484 0.3922,0.14168 0.7965,0.21597 1.21635,0.21597 0.51142,0 0.92436,-0.0604 1.22672,-0.18833 0.31101,-0.12101 0.54079,-0.25744 0.7032,-0.39911 v 2.53119 h 1.1127 v -8.09119 z m -3.1791,4.96045 c -0.33692,0.14169 -0.7084,0.21598 -1.11269,0.21598 -0.62719,0 -1.13343,-0.1486 -1.51181,-0.45269 -0.38529,-0.30408 -0.62027,-0.70839 -0.7153,-1.20771 0.74813,0 1.33557,-0.17624 1.74161,-0.54079 0.41121,-0.35766 0.62027,-0.85007 0.62027,-1.47725 0,-0.32482 -0.0673,-0.6151 -0.20215,-0.87081 -0.13477,-0.25571 -0.28337,-0.4665 -0.44578,-0.62718 h 2.40334 v 4.40584 c -0.18315,0.22978 -0.43885,0.41293 -0.77749,0.55461 m 4.17777,3.13074 h 1.12132 v -8.09119 h 1.28202 v -0.91918 h -3.68536 v 0.91918 h 1.28202 z m 6.5811,0 h 1.11442 v -8.09119 h 1.14724 v -0.91918 h -1.28892 c -0.0553,-0.121 -0.0951,-0.24188 -0.11577,-0.36455 -0.0207,-0.11398 -0.0259,-0.23499 -0.0259,-0.35075 0,-0.39738 0.15377,-0.73431 0.46478,-1.00556 0.31099,-0.27644 0.7965,-0.4043 1.45132,-0.4043 0.46478,0 0.92436,0.0811 1.37705,0.24879 0.44576,0.16242 0.86388,0.3784 1.25436,0.63582 0.39221,0.25571 0.74294,0.54599 1.06086,0.85698 0.30927,0.31619 0.57362,0.62029 0.78269,0.93128 l 0.18832,0.25571 0.83106,-0.45786 -0.12958,-0.19696 c -0.19524,-0.29718 -0.45786,-0.63411 -0.8017,-1.00558 -0.34555,-0.37147 -0.74985,-0.72221 -1.20945,-1.05912 -0.45784,-0.33001 -0.98482,-0.61337 -1.55844,-0.84315 -0.58054,-0.2298 -1.18871,-0.33866 -1.83663,-0.33866 -0.9641,0 -1.71395,0.19006 -2.24611,0.56844 -0.53389,0.38357 -0.80343,0.90364 -0.80343,1.55846 0,0.18832 0.0259,0.37838 0.0813,0.55289 0.0535,0.17624 0.10708,0.31791 0.16069,0.41812 h -1.18699 v 0.91918 h 1.28892 z m 4.22442,-6.55346 c -0.33691,0.10886 -0.63409,0.27125 -0.88289,0.48031 -0.25744,0.20907 -0.45268,0.46477 -0.58745,0.77578 -0.14168,0.311 -0.20906,0.66866 -0.20906,1.07986 0,0.45268 0.0813,0.84316 0.2298,1.18008 0.15376,0.33864 0.35765,0.62891 0.62026,0.85871 0.26263,0.23497 0.56672,0.4112 0.91055,0.53215 0.34383,0.11577 0.70838,0.17623 1.10059,0.17623 0.53907,0 0.97793,-0.0882 1.29583,-0.25744 0.31792,-0.1745 0.55981,-0.34383 0.73604,-0.51315 v 2.24093 h 1.11268 v -8.09119 h 1.28893 v -0.91918 h -8.00998 v 0.91918 h 5.60837 v 2.24611 c -0.19006,-0.22115 -0.45959,-0.42503 -0.81033,-0.60644 -0.34383,-0.17624 -0.77578,-0.26954 -1.28893,-0.26954 -0.4043,0 -0.77576,0.0535 -1.11441,0.1676 m 3.21367,2.55193 c 0,0.21597 -0.0484,0.42502 -0.14168,0.61336 -0.0951,0.19006 -0.22979,0.35764 -0.39912,0.49241 -0.16067,0.14168 -0.35765,0.25052 -0.57362,0.33173 -0.22289,0.0811 -0.45095,0.12101 -0.70147,0.12101 -0.58055,0 -1.04532,-0.12785 -1.39086,-0.38356 -0.34383,-0.25744 -0.51316,-0.71013 -0.51316,-1.35112 0,-0.52525 0.16933,-0.93129 0.50624,-1.18699 0.33865,-0.26435 0.78442,-0.39912 1.32348,-0.39912 0.43194,0 0.81032,0.10887 1.14724,0.33174 0.33,0.22288 0.58054,0.46478 0.74295,0.72912 z m 7.92359,-0.54772 h -2.96315 v -3.54194 h 2.96315 z m -2.96315,0.93128 h 2.96315 v 3.61797 h 1.11268 v -8.09119 h 1.28893 v -0.91918 h -8.21385 v 0.91918 h 1.7485 v 3.54194 h -0.16932 c -0.27644,0 -0.49241,0.0744 -0.641,0.22289 -0.14859,0.14859 -0.21597,0.34555 -0.21597,0.59435 0,0.20215 0.0345,0.3853 0.10887,0.55981 0.0811,0.16932 0.18142,0.3179 0.31618,0.43885 0.1365,0.12785 0.28509,0.22288 0.45268,0.29719 0.16241,0.0742 0.34382,0.10887 0.53388,0.10887 0.17451,0 0.32309,-0.0276 0.45096,-0.0882 0.12957,-0.0535 0.21769,-0.11577 0.26434,-0.16932 z m 2.34805,4.65117 c 0.1486,-0.13475 0.31101,-0.23669 0.48034,-0.31099 0.16067,-0.0673 0.34382,-0.10708 0.53215,-0.10708 0.33692,0 0.58053,0.0864 0.74294,0.26954 0.16241,0.17624 0.24189,0.41121 0.24189,0.7153 0,0.36456 -0.12101,0.65482 -0.36283,0.87771 -0.24362,0.21597 -0.59436,0.32309 -1.06777,0.32309 -0.51833,0 -1.01939,-0.13475 -1.48417,-0.41121 -0.4665,-0.27644 -0.93126,-0.68766 -1.40467,-1.22845 l -0.75504,0.64101 c 0.4855,0.62201 1.05222,1.1006 1.70013,1.43751 0.64792,0.33865 1.32348,0.50624 2.01804,0.50624 0.80343,0 1.41851,-0.19523 1.85046,-0.59435 0.43886,-0.39049 0.65482,-0.89673 0.65482,-1.517 0,-0.55461 -0.18313,-1.01939 -0.54079,-1.39085 -0.35764,-0.37149 -0.87081,-0.5529 -1.53254,-0.5529 -0.33692,0 -0.65482,0.0535 -0.95028,0.17451 -0.30409,0.12101 -0.52697,0.26263 -0.68247,0.43886 z m 7.73528,-5.27836 c 0,0.30409 -0.0414,0.55981 -0.12787,0.77059 -0.0882,0.20906 -0.20387,0.38357 -0.35764,0.52524 -0.1555,0.13477 -0.32482,0.23672 -0.52007,0.29719 -0.19696,0.0604 -0.40602,0.0951 -0.62891,0.0951 -0.44403,0 -0.8086,-0.14167 -1.09195,-0.43193 -0.27818,-0.28337 -0.41985,-0.68939 -0.41985,-1.21464 0,-0.25744 0.0484,-0.48031 0.13649,-0.66865 0.0933,-0.19523 0.20907,-0.35074 0.35074,-0.47859 0.14168,-0.13649 0.3041,-0.22288 0.49242,-0.29027 0.18832,-0.0622 0.37838,-0.0882 0.58053,-0.0882 0.30928,0 0.59436,0.0466 0.85007,0.15549 0.25053,0.10018 0.49933,0.28336 0.73604,0.53907 z m 4.46112,-1.92992 c -0.43886,-0.34383 -0.9451,-0.51315 -1.51181,-0.51315 -0.4112,0 -0.7896,0.0813 -1.12824,0.25743 -0.33692,0.1676 -0.58572,0.39739 -0.74813,0.66693 v -2.32732 h 2.05778 v -0.91918 h -8.13956 v 0.91918 h 4.99501 v 2.14591 c -0.43886,-0.49934 -1.0263,-0.74295 -1.76234,-0.74295 -0.33,0 -0.64791,0.0466 -0.95719,0.14858 -0.30407,0.10197 -0.57361,0.25054 -0.7965,0.45269 -0.22979,0.19523 -0.41121,0.44576 -0.55289,0.74812 -0.14341,0.29718 -0.21079,0.64792 -0.21079,1.04703 0,0.45269 0.0742,0.84316 0.21598,1.1749 0.14168,0.33692 0.33864,0.61336 0.58053,0.84316 0.24362,0.22978 0.52006,0.40429 0.83107,0.52006 0.311,0.10708 0.63409,0.16758 0.9641,0.16758 0.36455,0 0.69628,-0.0673 0.99347,-0.19523 0.30236,-0.13477 0.53214,-0.32309 0.69456,-0.55981 v 2.34115 h 1.08677 v -3.85295 c 0,-0.57363 0.14858,-1.0263 0.43886,-1.36322 0.29027,-0.34382 0.72221,-0.51314 1.28892,-0.51314 0.4043,0 0.72912,0.12088 0.99174,0.37147 z m 3.66461,1.08677 v 5.08831 h 1.1127 v -8.09119 h 1.28374 v -0.91918 h -8.24842 v 0.91918 h 5.852 v 2.03014 h -2.42234 c -0.81033,0 -1.43751,0.21597 -1.8902,0.64792 -0.45267,0.43885 -0.68247,1.05394 -0.68247,1.85736 0,0.68075 0.12958,1.32176 0.3922,1.9092 0.26263,0.58053 0.60645,1.17488 1.0384,1.77443 l 0.95892,-0.49933 c -0.39739,-0.59954 -0.7084,-1.14724 -0.92436,-1.63967 -0.20906,-0.4855 -0.31792,-0.99174 -0.31792,-1.50489 0,-0.45959 0.12959,-0.83624 0.3853,-1.12651 0.25571,-0.29718 0.67556,-0.44577 1.2561,-0.44577 z m 10.4617,-3.00288 v -0.91918 h -8.34862 v 0.91918 h 2.42925 c 0.18142,0.18833 0.33,0.39739 0.44577,0.62028 0.11398,0.22979 0.1676,0.47859 0.1676,0.74294 0,0.43194 -0.13477,0.75504 -0.41813,0.97101 -0.28335,0.21597 -0.78269,0.32483 -1.49107,0.32483 h -0.41812 c 0.0115,0.57362 0.10707,1.08677 0.30236,1.5187 0.19005,0.43886 0.43885,0.80169 0.74294,1.09887 0.30409,0.29027 0.65483,0.51315 1.04013,0.65484 0.39048,0.14168 0.7965,0.21597 1.21462,0.21597 0.52006,0 0.92436,-0.0604 1.23537,-0.18833 0.30235,-0.12101 0.53906,-0.25744 0.70147,-0.39911 v 2.53119 h 1.11269 v -8.09119 z m -3.17911,4.96045 c -0.33865,0.14169 -0.70838,0.21598 -1.1075,0.21598 -0.62719,0 -1.13342,-0.1486 -1.51872,-0.45269 -0.37839,-0.30408 -0.61337,-0.70839 -0.71531,-1.20771 0.75678,0 1.33731,-0.17624 1.74851,-0.54079 0.41121,-0.35766 0.61337,-0.85007 0.61337,-1.47725 0,-0.32482 -0.0673,-0.6151 -0.20216,-0.87081 -0.13477,-0.25571 -0.27644,-0.4665 -0.43884,-0.62718 h 2.40333 v 4.40584 c -0.18314,0.22288 -0.44576,0.41293 -0.78268,0.55461 m -3.28105,-8.10673 c 0.13477,-0.0742 0.29026,-0.12786 0.4665,-0.18142 0.1745,-0.0535 0.35765,-0.0742 0.54597,-0.0742 0.25053,0 0.47342,0.0207 0.66175,0.0742 0.18832,0.0535 0.36456,0.13477 0.52005,0.24362 0.1555,0.10708 0.30409,0.24188 0.43886,0.4043 0.12786,0.15549 0.26263,0.33 0.39739,0.53215 l 1.10059,1.6604 h 0.87081 l -1.08678,-2.05778 c -0.32482,-0.62028 -0.7153,-1.10751 -1.16798,-1.45134 -0.45786,-0.35074 -1.03839,-0.52698 -1.73469,-0.52698 -0.26261,0 -0.52524,0.0345 -0.77576,0.0951 -0.25571,0.0604 -0.4596,0.13477 -0.62028,0.22289 z m 11.78517,11.23747 h 1.1127 v -9.17796 h -1.1127 z m 3.11691,0 h 1.11442 v -9.17796 h -1.11442 z" class="svgShape color1d1d1b-28 selectable"></path><path d="M20.137826 404.7798h1.890189v8.98963h-1.890189zM30.490675 413.76943h-1.862547v-4.02227c0-.4855-.09331-.85006-.269534-1.10578-.183144-.25053-.459586-.37837-.836242-.37837-.526976 0-.905358.18141-1.135151.53906-.234979.34554-.35074.91917-.35074 1.72778v3.23958h-1.890189v-6.85583h1.432325l.269534.86389h.107131c.196965-.32481.473411-.56671.83797-.72912.376656-.17624.796505-.26953 1.26819-.26953.789593 0 1.390862.21596 1.808985.64792.411211.43194.620273 1.05221.620273 1.86254zM34.607969 413.90592c-.81033 0-1.451334-.311-1.916107-.94509-.452679-.62891-.67556-1.49971-.67556-2.61932 0-1.11268.229793-1.98349.701478-2.61931.466499-.62718 1.114415-.94336 1.943749-.94336.863892 0 1.518715.33692 1.971395.99865h.05357c-.09329-.49932-.134766-.95892-.134766-1.37703v-2.18738h1.890191v9.55635h-1.458247l-.350739-.88981h-.0812c-.431942.68766-1.079858 1.0263-1.94375 1.0263zm.647917-1.5118c.485503 0 .837974-.13649 1.053943-.40603.228067-.28335.357651-.76195.376656-1.4306v-.18832c0-.73604-.120944-1.26992-.350739-1.59302-.21597-.32482-.587444-.4855-1.105777-.4855-.419851 0-.742945.18142-.972738.53906-.236706.36457-.35074.87771-.35074 1.53946 0 .68764.114031 1.2008.35074 1.53771.229793.32483.566712.48724.998655.48724zM40.297543 405.13053c0-.60644.336915-.91745 1.0263-.91745.680745 0 1.0263.31101 1.0263.91745 0 .29028-.09503.51315-.271262.67557-.160682.16241-.418119.24362-.755038.24362-.689385 0-1.0263-.30409-1.0263-.91919zm1.971394 8.6389h-1.890189v-6.85583h1.890189zM48.578784 413.76943l-.35074-.94336h-.05356c-.324823.39738-.66174.67382-.998655.83624-.324825.16241-.756769.24361-1.295837.24361-.647917 0-1.161065-.19006-1.539447-.56844-.378386-.37665-.566712-.91745-.566712-1.61892 0-.73604.248798-1.2751.755038-1.62066.499327-.33692 1.269917-.52524 2.294489-.56672l1.188713-.0259v-.32483c0-.68075-.35074-1.02629-1.052217-1.02629-.561527 0-1.209444.1624-1.94375.48722l-.622-1.26992c.789594-.4112 1.674216-.62027 2.645228-.62027.919177 0 1.620655.20907 2.10616.62027.485507.39911.729123.99867.729123 1.80899v4.58897zm-.566711-3.18429l-.701478.0259c-.561528.0207-.972739.12267-1.242273.29718-.255711.18313-.378382.45267-.378382.81033 0 .53906.297178.81033.891534.81033.445767 0 .796505-.12267 1.052214-.3784.250528-.25052.378385-.58053.378385-.99865zM58.135125 413.76943h-1.862547v-4.02227c0-.4855-.09331-.85006-.269532-1.10578-.183145-.25053-.459589-.37837-.836244-.37837-.526972 0-.905356.18141-1.13515.53906-.234978.34554-.350739.91917-.350739 1.72778v3.23958h-1.89019v-6.85583h1.432328l.269534.86389h.107118c.196967-.32481.473412-.56671.837972-.72912.376656-.17624.796507-.26953 1.268189-.26953.789595 0 1.390863.21596 1.808988.64792.41121.43194.620269 1.05221.620269 1.86254zM63.494694 404.7798h1.890187v8.98963h-1.890187zM73.847539 413.76943h-1.862542v-4.02227c0-.4855-.09503-.85006-.269535-1.10578-.183147-.25053-.459593-.37837-.837976-.37837-.525245 0-.903624.18141-1.133419.53906-.236703.34554-.350739.91917-.350739 1.72778v3.23958h-1.890191v-6.85583h1.430598l.271263.86389h.107118c.195245-.32481.473417-.56671.83625-.72912.378378-.17624.796502-.26953 1.269916-.26953.789593 0 1.390861.21596 1.808985.64792.41121.43194.620269 1.05221.620269 1.86254zM80.584145 411.71856c0 .7222-.243617 1.26819-.729119 1.64656-.487236.36457-1.228456.5408-2.215012.5408-.485511 0-.91054-.0414-1.26819-.10886-.364563-.0673-.694565-.16933-.998658-.29718v-1.56536c.357655.18141.75504.32309 1.186984.43194.431949.10708.817242.16242 1.161068.16242.661743 0 .998653-.19698.998653-.59436 0-.14168-.04664-.25572-.134761-.35074-.09331-.0882-.24189-.19006-.457865-.29718-.21597-.12101-.513149-.26954-.891532-.43195-.526973-.21597-.910539-.41121-1.161067-.59435-.255711-.19524-.431945-.41121-.539071-.64792-.108843-.2488-.162409-.55288-.162409-.91745 0-.60817.229794-1.07986.70148-1.40469.466498-.33691 1.140333-.51141 2.024955-.51141.824148 0 1.625838.18141 2.40334.53906l-.566709 1.3494c-.345558-.14168-.668649-.25571-.972742-.35074-.290265-.10708-.587444-.16241-.891533-.16241-.559799 0-.836244.15549-.836244.45958 0 .16241.08812.31101.26953.43195.176234.12786.566714.31101 1.161068.54079.540796.21598.931273.42504 1.188715.62027.248797.18142.43194.3974.539062.64792.120944.25572.190057.53907.190057.8639zM84.957158 412.39412c.32309 0 .708384-.0691 1.161062-.21597v1.40296c-.473413.21596-1.040123.32481-1.701861.32481-.755039 0-1.309656-.19006-1.646571-.56844-.343831-.39047-.513153-.97101-.513153-1.72777v-3.29315H81.36683v-.81033l1.024569-.62027.540798-1.45825h1.186983v1.48589h1.943752v1.40296H84.11918v3.29315c0 .27126.06738.47341.21597.59435.162415.12786.364564.19006.622008.19006zM87.407142 405.13053c0-.60644.336916-.91745 1.026302-.91745.680742 0 1.024571.31101 1.024571.91745 0 .29028-.09331.51315-.26953.67557-.162414.16241-.418124.24362-.755041.24362-.689386 0-1.026302-.30409-1.026302-.91919zm1.969669 8.6389h-1.888459v-6.85583h1.888459zM94.23705 412.39412c.323091 0 .708389-.0691 1.161067-.21597v1.40296c-.473412.21596-1.040126.32481-1.70186.32481-.75504 0-1.30793-.19006-1.646572-.56844-.343829-.39047-.513153-.97101-.513153-1.72777v-3.29315h-.889805v-.81033l1.024574-.62027.540793-1.45825h1.186985v1.48589h1.945478v1.40296h-1.945478v3.29315c0 .27126.06912.47341.217701.59435.160682.12786.362831.19006.62027.19006zM101.6544 413.76943l-.26953-.88981h-.0812c-.21598.32311-.50624.58053-.8639.75504-.36456.17623-.782676.27126-1.269913.27126-.796504 0-1.396045-.21597-1.808986-.64792-.418121-.43193-.62027-1.06085-.62027-1.89018v-4.45422h1.862542v3.99463c0 .50624.08812.88462.269535 1.13342.176233.23672.459593.35247.837976.35247.539056 0 .917446-.16932 1.133416-.51315.2298-.35766.35074-.9451.35074-1.75543v-3.21194h1.89019v6.85583zM107.95734 412.39412c.32482 0 .70839-.0691 1.16106-.21597v1.40296c-.47168.21596-1.03839.32481-1.70013.32481-.75676 0-1.30965-.19006-1.64657-.56844-.34556-.39047-.51315-.97101-.51315-1.72777v-3.29315h-.89153v-.81033l1.02629-.62027.53907-1.45825h1.18871v1.48589h1.94375v1.40296h-1.94375v3.29315c0 .27126.0674.47341.21598.59435.16241.12786.36456.19006.62027.19006zM113.35664 408.1006c-.39739 0-.7153.12784-.94509.37837-.21597.25571-.34383.61337-.37666 1.07987h2.61759c0-.4665-.12094-.82416-.35074-1.07987-.23671-.25053-.55289-.37837-.9451-.37837zm.27127 5.80532c-1.12133 0-1.99213-.30409-2.61932-.91917-.61508-.60645-.91745-1.47035-.91745-2.59167 0-1.14725.28336-2.03706.86389-2.67288.57363-.62718 1.36322-.94336 2.3757-.94336.97101 0 1.72777.28335 2.26684.83625.5408.53906.81033 1.29582.81033 2.26684v.91917h-4.4283c.0138.53908.16933.9641.4596 1.26819.30408.29028.72912.43195 1.26818.43195.41294 0 .79651-.0397 1.16107-.13477.37838-.0882.76368-.22287 1.16107-.4043v1.45652c-.3231.16242-.67384.28336-1.05222.35074-.37838.0882-.83106.13649-1.34939.13649zM122.71084 410.31388c0 .68938.10886 1.20943.32482 1.56709.22979.34383.59435.51315 1.07986.51315.49933 0 .86388-.16932 1.07986-.51315.2298-.35766.35074-.87771.35074-1.56709 0-.66001-.12101-1.16627-.35074-1.51181-.21598-.33693-.58053-.51142-1.07986-.51142-.50624 0-.86389.17449-1.07986.51142-.21597.32482-.32482.83106-.32482 1.51181zm4.75139 0c0 1.12133-.29718 1.99904-.88981 2.64695-.59435.63409-1.41851.94509-2.4569.94509-.66865 0-1.25609-.14167-1.75543-.43194-.50623-.30409-.8898-.72913-1.16106-1.26992-.26953-.53906-.4043-1.16797-.4043-1.89018 0-1.1127.28336-1.97658.86389-2.59168.59435-.62718 1.41678-.94336 2.48281-.94336.66175 0 1.24919.14858 1.75543.43194.49933.29026.89154.70148 1.16106 1.24055.26954.52698.40431 1.14725.40431 1.86255zM132.78723 408.31656h-1.61892v5.45287h-1.86254v-5.45287h-1.05395v-.91745l1.05395-.48551v-.51314c0-.7896.18832-1.36322.56671-1.72778.37838-.35765.98483-.5408 1.8349-.5408.64792 0 1.22154.10197 1.72777.29718l-.45786 1.37704c-.37838-.10708-.72912-.16242-1.05394-.16242-.26954 0-.47169.0813-.59263.24363-.10887.14858-.16241.34382-.16241.59435v.43194h1.61892zM140.72465 413.76943h-1.89019v-7.39662h-2.45518v-1.59301h6.80227v1.59301h-2.4569zM147.26429 408.1006c-.39739 0-.7153.12784-.94509.37837-.21597.25571-.34383.61337-.37666 1.07987h2.61758c0-.4665-.12088-.82416-.35074-1.07987-.23671-.25053-.55289-.37837-.94509-.37837zm.27126 5.80532c-1.12133 0-1.99213-.30409-2.61931-.91917-.6151-.60645-.91745-1.47035-.91745-2.59167 0-1.14725.28335-2.03706.86388-2.67288.57363-.62718 1.36322-.94336 2.3757-.94336.97101 0 1.72778.28335 2.26684.83625.54081.53906.81033 1.29582.81033 2.26684v.91917h-4.42829c.0138.53908.16932.9641.45959 1.26819.30409.29028.72912.43195 1.26819.43195.41295 0 .7965-.0397 1.16107-.13477.37838-.0882.76368-.22287 1.16106-.4043v1.45652c-.32309.16242-.67383.28336-1.05221.35074-.37839.0882-.83106.13649-1.3494.13649zM154.64882 413.90592c-2.1459 0-3.21368-1.17488-3.21368-3.53675 0-1.16799.28336-2.05952.86389-2.67288.59436-.60818 1.4306-.91745 2.51046-.91745.7896 0 1.49972.15377 2.13381.45786l-.54079 1.45824c-.30928-.12101-.58572-.22287-.83624-.29718-.25572-.0673-.50624-.10708-.75678-.10708-.971 0-1.45651.69458-1.45651 2.07852 0 1.33557.48551 1.99731 1.45651 1.99731.35766 0 .68939-.0415 1.00039-.13476.30237-.0882.60646-.24362.91745-.4596v1.62066c-.31099.18142-.61508.30928-.91745.37666-.311.0882-.69629.13649-1.16106.13649zM164.6371 413.76943h-1.86255v-4.02227c0-.98484-.37147-1.48415-1.1075-1.48415-.52524 0-.90363.18141-1.13342.53906-.2367.36456-.35075.93818-.35075 1.72778v3.23958h-1.89018v-9.55635h1.89018v1.94377c0 .14858-.0207.50624-.0535 1.07985l-.0276.54079h.0813c.41121-.66173 1.07986-.99865 1.99732-.99865.81033 0 1.41677.21596 1.83663.64792.41121.43194.62027 1.05221.62027 1.86254zM172.91143 413.76943h-1.86255v-4.02227c0-.4855-.0951-.85006-.26952-1.10578-.18315-.25053-.4596-.37837-.83798-.37837-.52524 0-.90363.18141-1.13342.53906-.23672.34554-.35075.91917-.35075 1.72778v3.23958h-1.89018v-6.85583h1.4306l.27126.86389h.10708c.19523-.32481.47169-.56671.83626-.72912.37838-.17624.79649-.26953 1.26991-.26953.78959 0 1.38912.21596 1.80898.64792.41121.43194.62027 1.05221.62027 1.86254zM176.35316 410.31388c0 .68938.10887 1.20943.32483 1.56709.2298.34383.59263.51315 1.07986.51315.49933 0 .86389-.16932 1.07986-.51315.22979-.35766.35073-.87771.35073-1.56709 0-.66001-.121-1.16627-.35073-1.51181-.21597-.33693-.58053-.51142-1.07986-.51142-.50624 0-.86389.17449-1.07986.51142-.21597.32482-.32483.83106-.32483 1.51181zm4.7514 0c0 1.12133-.29718 1.99904-.88981 2.64695-.59436.63409-1.4185.94509-2.4569.94509-.66865 0-1.2561-.14167-1.75542-.43194-.50624-.30409-.89153-.72913-1.16107-1.26992-.26953-.53906-.4043-1.16797-.4043-1.89018 0-1.1127.28335-1.97658.86388-2.59168.59436-.62718 1.41679-.94336 2.48283-.94336.66174 0 1.24918.14858 1.75542.43194.49932.29026.89153.70148 1.16107 1.24055.26953.52698.4043 1.14725.4043 1.86255zM182.62327 404.21308h1.89019v9.55635h-1.89019zM187.96901 410.31388c0 .68938.10708 1.20943.32311 1.56709.22978.34383.59435.51315 1.07985.51315.49933 0 .86389-.16932 1.07986-.51315.2298-.35766.35247-.87771.35247-1.56709 0-.66001-.12267-1.16627-.35247-1.51181-.21597-.33693-.58053-.51142-1.07986-.51142-.50624 0-.86389.17449-1.07985.51142-.21598.32482-.32311.83106-.32311 1.51181zm4.7514 0c0 1.12133-.29718 1.99904-.89153 2.64695-.59263.63409-1.41679.94509-2.45691.94509-.66692 0-1.25436-.14167-1.75369-.43194-.50624-.30409-.89153-.72913-1.16107-1.26992-.26953-.53906-.4043-1.16797-.4043-1.89018 0-1.1127.28336-1.97658.86389-2.59168.59263-.62718 1.41678-.94336 2.48281-.94336.66175 0 1.24919.14858 1.75543.43194.49933.29026.88981.70148 1.15934 1.24055.27126.52698.40603 1.14725.40603 1.86255zM200.23279 406.9136v.9451l-1.07986.26954c.19524.30926.29544.64791.29544 1.02629 0 .74122-.26261 1.31484-.78268 1.72777-.50623.41814-1.21462.62029-2.13208.62029l-.32482-.0276-.29545-.0259c-.18314.14859-.27125.30928-.27125.48551 0 .26953.33864.4043 1.02629.4043h1.16107c.75504 0 1.32866.1624 1.72778.48723.39047.3231.59435.8017.59435 1.4306 0 .8086-.34555 1.4306-1.0263 1.86255-.66865.44576-1.62066.67384-2.8612.67384-.95891 0-1.69495-.17451-2.215-.51143-.50625-.32482-.75505-.79651-.75505-1.40469 0-.41812.121-.76885.37839-1.05221.26953-.27126.65482-.45959 1.16106-.56671-.20388-.0882-.37147-.22289-.51315-.40603-.14858-.1745-.21597-.37838-.21597-.59436 0-.26952.0673-.4855.21597-.64791.16068-.17451.38357-.35074.67384-.51142-.36457-.16241-.64793-.41294-.8639-.75677-.21596-.33691-.32309-.74295-.32309-1.21462 0-.75678.2419-1.3304.72912-1.72778.49933-.41122 1.2008-.62028 2.10444-.62028.19696 0 .41985.019.67556.0535.26954.0397.43886.0673.51315.0813zm-5.31983 7.82857c0 .2488.12267.44576.37838.59435.25053.16069.60127.24189 1.05395.24189.66001 0 1.18698-.10018 1.56536-.29718.37839-.18141.56671-.43193.56671-.75504 0-.25571-.12088-.43194-.35073-.54079-.21598-.0933-.55981-.13477-1.0263-.13477h-.97102c-.34555 0-.63582.0811-.86388.24362-.23671.16242-.35247.37839-.35247.64792zm.7032-5.58764c0 .37665.0813.67383.24189.88981.17623.21597.43886.32483.78269.32483.33864 0 .59435-.10887.75676-.32483.17451-.21598.26954-.51316.26954-.88981 0-.82415-.34383-1.24227-1.0263-1.24227-.68766 0-1.02458.41812-1.02458 1.24227zM200.36064 406.9136h2.05087l1.29585 3.85986c.10886.32483.17622.72221.21596 1.18871h.0535c.0345-.43194.12267-.82414.27126-1.18871l1.26819-3.85986h1.99732l-2.91477 7.74736c-.25745.70148-.63409 1.22846-1.13343 1.59301-.48722.35766-1.06777.53907-1.72778.53907-.32481 0-.64099-.0397-.94508-.10708v-1.48417c.21597.0535.45786.0795.72911.0795.33692 0 .62719-.10708.86389-.32309.2488-.20215.44405-.49933.59264-.89153l.10886-.35075zM219.35929 409.18045c0 1.49798-.42503 2.64005-1.26991 3.42964-.85007.77577-2.0647 1.15934-3.64389 1.15934h-2.53811v-8.98963h2.80765c1.47206 0 2.61931.39221 3.42964 1.16106.80859.77578 1.21462 1.85563 1.21462 3.23959zm-1.97139.0535c0-1.92301-.85698-2.88711-2.56402-2.88711h-1.0263v5.85717h.83624c1.83662 0 2.75408-.98483 2.75408-2.97006zM227.39 413.76943h-1.86254v-4.02227c0-.98484-.37146-1.48415-1.10578-1.48415-.52698 0-.90534.18141-1.13514.53906-.23499.36456-.35075.93818-.35075 1.72778v3.23958h-1.89018v-9.55635h1.89018v1.94377c0 .14858-.0207.50624-.0535 1.07985l-.0276.54079h.0811c.41121-.66173 1.07986-.99865 1.99731-.99865.81033 0 1.41851.21596 1.83663.64792.41121.43194.62027 1.05221.62027 1.86254zM233.69466 413.76943l-.35073-.94336h-.0553c-.32309.39738-.66.67382-.99865.83624-.3231.16241-.75504.24361-1.29584.24361-.64791 0-1.16106-.19006-1.53772-.56844-.37838-.37665-.56844-.91745-.56844-1.61892 0-.73604.25053-1.2751.75677-1.62066.49933-.33692 1.26819-.52524 2.29449-.56672l1.18871-.0259v-.32483c0-.68075-.35247-1.02629-1.05395-1.02629-.5598 0-1.20772.1624-1.94374.48722l-.62028-1.26992c.7896-.4112 1.67422-.62027 2.64523-.62027.91745 0 1.62065.20907 2.10616.62027.4855.39911.72913.99867.72913 1.80899v4.58897zm-.5667-3.18429l-.70321.0259c-.55979.0207-.97102.12267-1.24054.29718-.25744.18313-.37838.45267-.37838.81033 0 .53906.29717.81033.88981.81033.44576 0 .7965-.12267 1.05394-.3784.2488-.25052.37838-.58053.37838-.99865zM240.74054 406.77884c.2488 0 .46478.019.64792.0535l-.13475 1.75371c-.16242-.0328-.35075-.0535-.56672-.0535-.59436 0-1.06777.1555-1.40469.45958-.32309.30928-.48551.74123-.48551 1.29584v3.48147h-1.89018v-6.85583h1.43061l.26952 1.13344h.10887c.19525-.3784.47169-.68248.83625-.91746.37839-.22979.77059-.35074 1.18871-.35074zM248.29959 413.76943l-.54081-2.40161-.70147-3.02361h-.0535l-1.24227 5.42522h-2.02496l-1.94374-6.85583h1.86253l.78269 3.02362c.12267.5598.25053 1.31484.37838 2.26684h.0535c.0138-.32309.0882-.81552.21597-1.48416l.0811-.51316.86389-3.29314h2.05261l.81031 3.29314c.0115.0951.0397.2298.0795.40431.0345.16241.0622.34556.0811.54079.0345.20215.0622.3974.0813.59436.0345.18142.0604.33692.0811.45786h.0276c.0328-.30409.0933-.70839.18834-1.21462.10887-.52007.17623-.87081.21597-1.05222l.81032-3.02362h1.83491l-1.96967 6.85583zM257.75571 413.76943l-.35246-.94336h-.0535c-.3231.39738-.66174.67382-.99866.83624-.3231.16241-.75504.24361-1.29584.24361-.64791 0-1.16106-.19006-1.53944-.56844-.37666-.37665-.56672-.91745-.56672-1.61892 0-.73604.25054-1.2751.75678-1.62066.49931-.33692 1.26818-.52524 2.29448-.56672l1.18699-.0259v-.32483c0-.68075-.35075-1.02629-1.05222-1.02629-.5598 0-1.20772.1624-1.94375.48722l-.62027-1.26992c.78959-.4112 1.67249-.62027 2.64522-.62027.91745 0 1.61893.20907 2.10616.62027.48552.39911.72913.99867.72913 1.80899v4.58897zm-.56844-3.18429l-.70147.0259c-.55981.0207-.97101.12267-1.24228.29718-.25571.18313-.37666.45267-.37666.81033 0 .53906.29718.81033.88981.81033.44576 0 .79651-.12267 1.05394-.3784.24881-.25052.37666-.58053.37666-.99865zM263.15328 413.90592c-.80859 0-1.4496-.311-1.9161-.94509-.45267-.62891-.67556-1.49971-.67556-2.61932 0-1.11268.22979-1.98349.70321-2.61931.46477-.62718 1.11269-.94336 1.94376-.94336.86388 0 1.51871.33692 1.96966.99865h.0553c-.0951-.49932-.13477-.95892-.13477-1.37703v-2.18738h1.88846v9.55635h-1.45651l-.35247-.88981h-.0795c-.43195.68766-1.08159 1.0263-1.94549 1.0263zm.64965-1.5118c.48551 0 .83624-.13649 1.05222-.40603.22979-.28335.35765-.76195.37839-1.4306v-.18832c0-.73604-.12267-1.26992-.35247-1.59302-.21425-.32482-.58572-.4855-1.10578-.4855-.41812 0-.74295.18142-.97274.53906-.23497.36457-.35074.87771-.35074 1.53946 0 .68764.11577 1.2008.35074 1.53771.22979.32483.56844.48724 1.00038.48724z" fill="#ffffff" class="svgShape color000000-29 selectable"></path></g></svg></g></svg>