<svg width="484" height="511" viewBox="0 0 484 511" fill="none" xmlns="http://www.w3.org/2000/svg">
<path d="M280.92 85.5001C271.79 76.7801 263.8 67.8901 256.86 59.3202C255.88 58.1202 254.61 57.4602 253.3 57.4602H230.7C229.39 57.4602 228.12 58.1202 227.15 59.3202C220.2 67.8901 212.21 76.7801 203.08 85.5001C184.18 103.56 166.17 115.42 151.74 123.24C180.91 124.68 211.06 125.47 242.13 125.47C273.12 125.47 303.18 124.68 332.26 123.24C317.84 115.42 299.83 103.56 280.92 85.5001Z" fill="#292B2B"/>
<path d="M352.33 233.71C355.7 233.71 359 232.55 361.57 230.3C362.41 229.57 363.22 228.69 363.95 227.62C366.5 223.87 366.56 220 366.52 218.65C358.14 215.83 345.07 210.23 332.03 198.91C323.19 191.24 316.98 183.23 312.76 176.73C311.46 174.73 309.6 173.58 307.64 173.58H176.36C174.4 173.58 172.54 174.73 171.24 176.73C167.02 183.23 160.81 191.24 151.97 198.91C138.93 210.23 125.86 215.83 117.48 218.65C117.44 220 117.5 223.87 120.05 227.62C120.78 228.69 121.59 229.57 122.43 230.3C125 232.55 128.3 233.71 131.67 233.71C166.92 235.97 203.73 237.24 242 237.24C280.27 237.24 317.08 235.97 352.33 233.71Z" fill="#292B2B"/>
<path d="M389.72 350.33C394.24 350.33 398.66 349.17 402.1 346.92C403.22 346.19 404.3 345.31 405.28 344.24C408.7 340.49 408.78 336.62 408.73 335.27C397.5 332.45 380.01 326.84 362.54 315.53C350.45 307.7 342.05 299.51 336.39 292.94C334.87 291.17 332.94 290.2 330.94 290.2H153.06C151.06 290.2 149.13 291.17 147.61 292.94C141.96 299.51 133.55 307.7 121.46 315.53C103.99 326.84 86.4999 332.45 75.2698 335.27C75.2198 336.62 75.2999 340.49 78.7198 344.24C79.6999 345.31 80.7798 346.19 81.8999 346.92C85.3398 349.17 89.7599 350.33 94.2798 350.33C141.47 352.58 190.76 353.86 242 353.86C293.24 353.86 342.53 352.58 389.72 350.33Z" fill="#292B2B"/>
<path d="M345.63 438.59H315.56V397.53H345.63V438.59ZM302.32 438.59H272.26V397.53H302.32V438.59ZM210.08 438.59H180.01V397.53H210.08V438.59ZM166.77 438.59H136.71V397.53H166.77V438.59ZM128.58 358.54V473.43H223.32V397.53H260.68V473.43H355.42V358.54H128.58Z" fill="#292B2B"/>
<path d="M323.6 277.3H303.74V250.18H323.6V277.3ZM275.82 277.32H255.96V250.2H275.82V277.32ZM228.04 277.33H208.18V250.22H228.04V277.33ZM180.26 277.35H160.4V250.23H180.26V277.35ZM151.74 241.51V286.02H332.26V241.51H151.74Z" fill="#292B2B"/>
<path d="M300.44 162.49H281.61V136.77H300.44V162.49ZM268.15 162.49H249.32V136.77H268.15V162.49ZM235.86 162.49H217.03V136.77H235.86V162.49ZM203.57 162.49H184.74V136.77H203.57V162.49ZM176.24 129.64V169.62H308.94V129.64H176.24Z" fill="#292B2B"/>
<path d="M251.11 45.6201H246.27C246.84 44.4801 247.18 43.1 247.18 41.6102C247.18 38.7 245.89 36.2 244.04 35.1101V2.79003C244.04 1.24999 243.13 -7.62939e-06 242 -7.62939e-06C240.87 -7.62939e-06 239.96 1.24999 239.96 2.79003V35.1101C238.11 36.2 236.82 38.7 236.82 41.6102C236.82 43.1 237.16 44.4801 237.74 45.6201H232.89C231.16 45.6201 229.75 47.54 229.75 49.9102C229.75 52.2801 231.16 54.19 232.89 54.19H251.11C252.84 54.19 254.25 52.2801 254.25 49.9102C254.25 47.54 252.84 45.6201 251.11 45.6201Z" fill="#292B2B"/>
<path d="M484.01 510.85C479.57 483.66 372.92 461.91 242 461.91C111.08 461.91 4.42988 483.66 0 510.85C67.05 502.94 148.96 496.68 242.4 496.7C335.5 496.71 417.13 502.96 484.01 510.85Z" fill="#292B2B"/>
</svg>
