<svg width="274" height="262" viewBox="0 0 274 262" fill="none" xmlns="http://www.w3.org/2000/svg">
<path d="M180.53 21.1674C180.53 -18.1552 136.909 9.35944 136.909 9.35944C136.909 9.35944 93.2886 -18.1552 93.2886 21.1674C93.2886 60.4901 112.818 142.033 136.909 142.033C161.001 142.033 180.53 60.4901 180.53 21.1674Z" fill="#EC688A"/>
<path d="M43.0169 57.0216C5.61952 44.8696 18.3062 94.8576 18.3062 94.8576C18.3062 94.8576 -21.3405 127.842 16.0582 139.994C53.4555 152.144 137.042 158.768 144.488 135.856C151.932 112.944 80.4142 69.1723 43.0169 57.0216Z" fill="#EC688A"/>
<path d="M34.6221 198.884C11.5087 230.696 62.9714 234.077 62.9714 234.077C62.9714 234.077 82.0887 281.976 105.202 250.162C128.315 218.35 160.445 140.901 140.955 126.741C121.465 112.581 57.7341 167.072 34.6221 198.884Z" fill="#EC688A"/>
<path d="M166.947 250.705C190.059 282.517 209.177 234.619 209.177 234.619C209.177 234.619 260.64 231.239 237.527 199.427C214.413 167.613 150.684 113.123 131.193 127.284C111.703 141.444 143.833 218.893 166.947 250.705Z" fill="#EC688A"/>
<path d="M257.123 140.871C294.52 128.719 254.873 95.7359 254.873 95.7359C254.873 95.7359 267.561 45.7479 230.163 57.8985C192.765 70.0505 121.248 113.823 128.693 136.733C136.137 159.647 219.725 153.021 257.123 140.871Z" fill="#EC688A"/>
<path d="M153.013 130.759C153.013 139.813 145.673 147.153 136.619 147.153C127.564 147.153 120.224 139.813 120.224 130.759C120.224 121.704 127.564 114.364 136.619 114.364C145.673 114.364 153.013 121.704 153.013 130.759Z" fill="white"/>
<path d="M137.793 122.149H135.445V92.369H137.793V122.149Z" fill="white"/>
<path d="M141.23 93.9064C141.23 96.4531 139.166 98.5171 136.619 98.5171C134.072 98.5171 132.007 96.4531 132.007 93.9064C132.007 91.3597 134.072 89.2957 136.619 89.2957C139.166 89.2957 141.23 91.3597 141.23 93.9064Z" fill="white"/>
<path d="M132.062 123.455L119.95 96.2492L122.095 95.2945L134.207 122.5L132.062 123.455Z" fill="white"/>
<path d="M125.86 95.3002C126.896 97.6269 125.849 100.352 123.523 101.388C121.196 102.424 118.471 101.378 117.435 99.0509C116.399 96.7242 117.445 93.9989 119.772 92.9642C122.099 91.9282 124.824 92.9736 125.86 95.3002Z" fill="white"/>
<path d="M129.502 126.022L107.372 106.096L108.944 104.352L131.074 124.277L129.502 126.022Z" fill="white"/>
<path d="M112.385 102.826C114.277 104.53 114.431 107.444 112.727 109.338C111.023 111.23 108.108 111.383 106.215 109.679C104.323 107.975 104.169 105.059 105.873 103.167C107.577 101.274 110.493 101.122 112.385 102.826Z" fill="white"/>
<path d="M128.209 129.41L99.8867 120.207L100.613 117.974L128.935 127.176L128.209 129.41Z" fill="white"/>
<path d="M103.136 115.18C105.558 115.966 106.884 118.569 106.098 120.99C105.31 123.412 102.708 124.737 100.287 123.95C97.8644 123.164 96.539 120.562 97.327 118.141C98.1137 115.718 100.715 114.393 103.136 115.18Z" fill="white"/>
<path d="M98.7888 136.143L98.5435 133.808L128.159 130.695L128.405 133.031L98.7888 136.143Z" fill="white"/>
<path d="M99.7125 130.229C102.244 129.962 104.514 131.799 104.78 134.333C105.046 136.865 103.21 139.134 100.676 139.399C98.1445 139.666 95.8752 137.829 95.6085 135.297C95.3432 132.763 97.1805 130.495 99.7125 130.229Z" fill="white"/>
<path d="M104.267 151.147L103.093 149.114L128.882 134.223L130.057 136.258L104.267 151.147Z" fill="white"/>
<path d="M102.705 145.369C104.911 144.095 107.731 144.851 109.004 147.057C110.277 149.262 109.521 152.082 107.316 153.355C105.111 154.629 102.291 153.873 101.017 151.667C99.7441 149.462 100.5 146.642 102.705 145.369Z" fill="white"/>
<path d="M115.375 162.626L113.475 161.246L130.979 137.154L132.879 138.534L115.375 162.626Z" fill="white"/>
<path d="M111.598 157.983C113.095 155.923 115.978 155.465 118.038 156.963C120.098 158.459 120.555 161.343 119.058 163.403C117.562 165.463 114.678 165.92 112.618 164.424C110.558 162.927 110.101 160.043 111.598 157.983Z" fill="white"/>
<path d="M130.19 168.595L127.893 168.107L134.085 138.978L136.382 139.466L130.19 168.595Z" fill="white"/>
<path d="M124.851 165.889C125.38 163.398 127.83 161.807 130.32 162.337C132.811 162.866 134.402 165.315 133.872 167.806C133.343 170.297 130.894 171.887 128.403 171.358C125.912 170.829 124.322 168.379 124.851 165.889Z" fill="white"/>
<path d="M143.857 168.51L137.665 139.381L139.963 138.893L146.154 168.022L143.857 168.51Z" fill="white"/>
<path d="M140.175 167.721C139.646 165.23 141.235 162.781 143.727 162.251C146.218 161.722 148.666 163.313 149.195 165.803C149.726 168.294 148.135 170.743 145.645 171.273C143.153 171.802 140.705 170.211 140.175 167.721Z" fill="white"/>
<path d="M158.603 162.385L141.099 138.293L142.999 136.913L160.503 161.005L158.603 162.385Z" fill="white"/>
<path d="M154.92 163.162C153.422 161.102 153.88 158.218 155.94 156.721C158 155.225 160.884 155.681 162.381 157.742C163.877 159.801 163.42 162.685 161.361 164.182C159.3 165.679 156.417 165.222 154.92 163.162Z" fill="white"/>
<path d="M169.584 150.792L143.795 135.903L144.97 133.868L170.759 148.759L169.584 150.792Z" fill="white"/>
<path d="M166.535 153C164.33 151.727 163.574 148.907 164.847 146.701C166.12 144.496 168.94 143.74 171.146 145.013C173.351 146.287 174.107 149.107 172.834 151.312C171.56 153.517 168.74 154.273 166.535 153Z" fill="white"/>
<path d="M174.901 135.735L145.285 132.623L145.53 130.287L175.146 133.4L174.901 135.735Z" fill="white"/>
<path d="M173.013 138.992C170.481 138.726 168.643 136.458 168.909 133.924C169.175 131.392 171.443 129.555 173.977 129.822C176.51 130.087 178.346 132.356 178.081 134.888C177.814 137.422 175.545 139.259 173.013 138.992Z" fill="white"/>
<path d="M145.311 129.02L144.585 126.786L172.907 117.584L173.633 119.817L145.311 129.02Z" fill="white"/>
<path d="M173.233 123.561C170.811 124.347 168.21 123.022 167.423 120.601C166.635 118.178 167.961 115.577 170.383 114.79C172.805 114.003 175.406 115.329 176.194 117.751C176.981 120.173 175.655 122.774 173.233 123.561Z" fill="white"/>
<path d="M143.869 125.718L142.299 123.973L164.428 104.046L166 105.791L143.869 125.718Z" fill="white"/>
<path d="M167.158 109.374C165.266 111.078 162.35 110.926 160.646 109.032C158.942 107.14 159.095 104.224 160.987 102.52C162.879 100.816 165.795 100.97 167.499 102.862C169.203 104.755 169.05 107.67 167.158 109.374Z" fill="white"/>
<path d="M141.211 123.287L139.065 122.333L151.177 95.1272L153.323 96.0832L141.211 123.287Z" fill="white"/>
<path d="M155.837 98.8848C154.801 101.211 152.076 102.257 149.749 101.221C147.423 100.186 146.376 97.4608 147.412 95.1341C148.448 92.8074 151.173 91.7608 153.5 92.7968C155.827 93.8328 156.873 96.5581 155.837 98.8848Z" fill="white"/>
</svg>
