<svg width="277" height="268" viewBox="0 0 277 268" fill="none" xmlns="http://www.w3.org/2000/svg">
<path d="M200.115 90.1333C200.115 124.568 172.361 152.481 138.125 152.481C103.888 152.481 76.1345 124.568 76.1345 90.1333C76.1345 55.7 91.8092 -1.08393e-06 138.125 -1.08393e-06C185.152 -1.08393e-06 200.115 55.7 200.115 90.1333Z" fill="#EC688A"/>
<path d="M107.471 67.3659C140.221 78.0059 158.191 113.029 147.611 145.589C137.033 178.15 101.907 195.919 69.1592 185.279C36.4099 174.638 -11.7208 142.518 2.59254 98.4699C17.1245 53.7445 74.7219 56.7259 107.471 67.3659Z" fill="#EC688A"/>
<path d="M57.1888 148.44C77.4301 120.581 116.29 114.312 143.989 134.436C171.686 154.56 177.731 193.456 157.493 221.313C137.253 249.172 91.8301 285.02 54.3608 257.797C16.3155 230.155 36.9488 176.297 57.1888 148.44Z" fill="#EC688A"/>
<path d="M118.758 221.314C98.5163 193.456 104.563 154.56 132.262 134.436C159.958 114.312 198.82 120.582 219.06 148.44C239.299 176.298 259.356 230.574 221.888 257.796C183.842 285.439 138.998 249.172 118.758 221.314Z" fill="#EC688A"/>
<path d="M207.09 185.279C174.34 195.919 139.218 178.149 128.636 145.589C118.058 113.028 136.028 78.0065 168.778 67.3652C201.526 56.7252 259.343 54.4212 273.656 98.4692C288.188 143.196 239.839 174.639 207.09 185.279Z" fill="#EC688A"/>
<path d="M159.772 125.266C164.728 136.457 159.672 149.545 148.482 154.501C137.291 159.455 124.202 154.401 119.247 143.209C114.292 132.018 119.348 118.93 130.538 113.974C141.73 109.019 154.818 114.074 159.772 125.266Z" fill="white"/>
<path d="M133.725 124.072L117.428 87.2668L119.576 86.3161L135.872 123.121L133.725 124.072Z" fill="white"/>
<path d="M125.043 86.1679C126.436 89.3145 125.015 92.9972 121.867 94.3905C118.719 95.7839 115.038 94.3625 113.644 91.2145C112.251 88.0665 113.674 84.3865 116.82 82.9919C119.967 81.5985 123.648 83.0199 125.043 86.1679Z" fill="white"/>
<path d="M161.217 186.165L144.92 149.359L147.068 148.409L163.364 185.214L161.217 186.165Z" fill="white"/>
<path d="M155.75 186.313C154.357 183.165 155.778 179.484 158.926 178.09C162.074 176.697 165.755 178.118 167.149 181.266C168.542 184.413 167.119 188.094 163.973 189.488C160.826 190.882 157.145 189.46 155.75 186.313Z" fill="white"/>
<path d="M128.253 131.886L89.9966 119.369L90.7246 117.137L128.982 129.654L128.253 131.886Z" fill="white"/>
<path d="M94.2734 112.975C97.5454 114.046 99.3294 117.565 98.2587 120.837C97.1894 124.109 93.6694 125.893 90.3974 124.822C87.1267 123.753 85.3414 120.231 86.412 116.961C87.4814 113.689 91.0027 111.905 94.2734 112.975Z" fill="white"/>
<path d="M95.4961 161.236L94.3254 159.2L129.225 139.145L130.396 141.181L95.4961 161.236Z" fill="white"/>
<path d="M93.6066 153.779C96.5906 152.064 100.401 153.092 102.116 156.077C103.831 159.061 102.801 162.871 99.8173 164.587C96.832 166.301 93.024 165.272 91.308 162.288C89.5933 159.303 90.6226 155.493 93.6066 153.779Z" fill="white"/>
<path d="M128.913 185.163L126.615 184.669L135.066 145.315L137.362 145.808L128.913 185.163Z" fill="white"/>
<path d="M122.107 181.577C122.829 178.211 126.143 176.069 129.509 176.791C132.873 177.514 135.017 180.827 134.295 184.193C133.572 187.558 130.257 189.701 126.892 188.978C123.525 188.255 121.384 184.942 122.107 181.577Z" fill="white"/>
<path d="M184.196 160.938L149.379 140.741L150.558 138.71L185.375 158.907L184.196 160.938Z" fill="white"/>
<path d="M179.861 164.271C176.885 162.545 175.87 158.73 177.598 155.753C179.325 152.775 183.138 151.762 186.115 153.489C189.094 155.215 190.107 159.03 188.379 162.007C186.653 164.985 182.838 165.998 179.861 164.271Z" fill="white"/>
<path d="M151.113 131.406L150.392 129.171L188.699 116.811L189.42 119.046L151.113 131.406Z" fill="white"/>
<path d="M188.996 124.499C185.721 125.555 182.208 123.756 181.151 120.48C180.095 117.205 181.893 113.693 185.169 112.636C188.445 111.579 191.957 113.377 193.015 116.653C194.072 119.929 192.272 123.441 188.996 124.499Z" fill="white"/>
<path d="M145.337 123.871L143.195 122.911L159.641 86.1737L161.785 87.1324L145.337 123.871Z" fill="white"/>
<path d="M165.552 91.0956C164.145 94.2369 160.459 95.6449 157.317 94.2369C154.176 92.8316 152.769 89.1449 154.176 86.0023C155.581 82.8609 159.269 81.4543 162.411 82.8609C165.552 84.2676 166.959 87.9543 165.552 91.0956Z" fill="white"/>
<path d="M151.789 129.158L149.955 127.693L169.939 102.647L171.775 104.111L151.789 129.158Z" fill="white"/>
<path d="M173.703 107.766C171.995 109.907 168.872 110.259 166.731 108.55C164.588 106.841 164.238 103.719 165.947 101.577C167.656 99.4354 170.778 99.0848 172.919 100.794C175.062 102.502 175.412 105.625 173.703 107.766Z" fill="white"/>
<path d="M139.307 120.655L137.801 88.6488L140.147 88.5381L141.654 120.545L139.307 120.655Z" fill="white"/>
<path d="M144.008 90.0122C144.137 92.7496 142.023 95.0722 139.285 95.2016C136.548 95.3296 134.225 93.2149 134.096 90.4789C133.968 87.7416 136.083 85.4189 138.819 85.2896C141.556 85.1602 143.879 87.2749 144.008 90.0122Z" fill="white"/>
<path d="M131.646 125.838L105.61 107.162L106.978 105.254L133.014 123.93L131.646 125.838Z" fill="white"/>
<path d="M110.529 103.141C112.755 104.739 113.266 107.837 111.669 110.064C110.071 112.291 106.973 112.801 104.746 111.204C102.519 109.608 102.009 106.508 103.606 104.281C105.203 102.055 108.302 101.544 110.529 103.141Z" fill="white"/>
<path d="M98.3879 142.691L97.7319 140.436L128.5 131.489L129.155 133.745L98.3879 142.691Z" fill="white"/>
<path d="M98.2619 136.337C100.894 135.572 103.647 137.085 104.411 139.716C105.178 142.348 103.665 145.1 101.033 145.865C98.4006 146.631 95.6486 145.117 94.8833 142.487C94.1193 139.856 95.6313 137.103 98.2619 136.337Z" fill="white"/>
<path d="M118.861 166.409L116.815 165.256L132.555 137.345L134.601 138.499L118.861 166.409Z" fill="white"/>
<path d="M114.329 161.955C115.675 159.568 118.7 158.724 121.087 160.071C123.473 161.416 124.317 164.443 122.972 166.83C121.627 169.216 118.6 170.06 116.213 168.714C113.827 167.368 112.983 164.342 114.329 161.955Z" fill="white"/>
<path d="M144.288 176.168L138.615 144.632L140.927 144.216L146.597 175.752L144.288 176.168Z" fill="white"/>
<path d="M140.267 175.211C139.782 172.515 141.574 169.935 144.272 169.449C146.968 168.964 149.548 170.757 150.032 173.455C150.518 176.151 148.726 178.731 146.028 179.215C143.332 179.7 140.752 177.908 140.267 175.211Z" fill="white"/>
<path d="M166.373 164.833L143.197 142.707L144.818 141.008L167.994 163.136L166.373 164.833Z" fill="white"/>
<path d="M162.561 166.431C160.58 164.539 160.507 161.398 162.399 159.416C164.291 157.434 167.431 157.362 169.413 159.254C171.395 161.146 171.468 164.287 169.576 166.268C167.684 168.25 164.543 168.323 162.561 166.431Z" fill="white"/>
<path d="M179.229 137.834L147.2 136.965L147.262 134.618L179.293 135.487L179.229 137.834Z" fill="white"/>
<path d="M177.474 141.575C174.734 141.501 172.574 139.219 172.649 136.481C172.723 133.742 175.003 131.582 177.742 131.657C180.482 131.73 182.642 134.011 182.567 136.75C182.494 139.49 180.213 141.65 177.474 141.575Z" fill="white"/>
</svg>
