<svg width="306" height="292" viewBox="0 0 306 292" fill="none" xmlns="http://www.w3.org/2000/svg">
<path d="M242.861 147.627C220.22 141.183 198.939 139.108 183.908 141.083C196.815 133.004 212.04 117.475 225.413 97.5641C233.835 85.0254 238.757 71.3774 241.609 59.0508L208.773 73.7108L209.927 37.7694C199.593 45.0721 188.821 54.7895 180.399 67.3281C167.273 86.8708 158.724 106.469 155.957 121.375C152.263 106.601 142.197 87.3228 127.395 68.4521C118.072 56.5668 106.613 47.6694 95.7706 41.1494L99.5666 76.9068L65.7412 64.7041C69.4932 76.7868 75.4052 90.0361 84.7279 101.92C99.2572 120.443 115.256 134.629 128.576 141.867C113.385 140.816 91.9399 144.432 69.4173 152.677C55.2333 157.872 43.2306 166.019 33.6772 174.316L68.8586 181.756L46.8012 210.155C59.4519 210.321 73.8786 208.791 88.0626 203.599C110.168 195.503 128.605 184.672 139.604 174.24C133.911 188.363 130.721 209.876 131.605 233.844C132.161 248.937 136.201 262.872 141.14 274.521L159.087 243.361L179.28 273.115C183.348 261.135 186.351 246.94 185.795 231.847C184.928 208.321 180.324 187.44 173.801 173.756C185.472 183.536 204.947 193.215 228.016 199.781C242.543 203.917 257.043 204.38 269.648 203.283L245.559 176.585L280.097 166.576C269.96 159.004 257.389 151.763 242.861 147.627Z" fill="#EC688A"/>
<path d="M239.147 216.463C221.988 192.845 202.811 174.535 186.635 164.957C205.411 166.955 232.151 163.453 260.437 154.264C278.251 148.475 293.497 138.927 305.713 129.081L262.457 118.256L291.089 84.0707C275.419 83.2867 257.472 84.524 239.659 90.312C211.895 99.332 188.555 111.913 174.448 124.337C182.148 107.099 187.083 80.584 187.083 50.8413C187.083 32.112 182.712 14.66 177.124 -8.68042e-06L153.461 37.7933L129.797 -8.68042e-06C124.209 14.66 119.84 32.112 119.84 50.8413C119.84 80.0347 124.591 106.12 132.049 123.376C118.033 110.724 94.3413 97.8387 66.056 88.648C48.2413 82.86 30.2947 81.6227 14.624 82.408L43.256 116.592L0 127.417C12.216 137.264 27.4627 146.812 45.276 152.6C73.0387 161.62 99.316 165.161 118.032 163.401C101.669 172.824 82.0933 191.373 64.612 215.435C53.6013 230.588 46.88 247.273 42.784 262.42L84.1427 245.753L81.0707 290.237C94.2093 281.66 108.003 270.111 119.012 254.959C136.171 231.341 147.659 207.444 151.768 189.101C155.672 207.575 167.264 231.925 184.747 255.987C195.756 271.14 209.548 282.689 222.687 291.267L219.616 246.78L260.975 263.448C256.877 248.303 250.156 231.615 239.147 216.463Z" fill="#FEA6C8"/>
<path d="M163.702 150.107C163.702 156.366 158.628 161.441 152.369 161.441C146.109 161.441 141.034 156.366 141.034 150.107C141.034 143.847 146.109 138.773 152.369 138.773C158.628 138.773 163.702 143.847 163.702 150.107Z" fill="white"/>
<path d="M153.151 144.155H151.586V123.567H153.151V144.155Z" fill="white"/>
<path d="M152.369 126.874C151.131 126.874 150.125 125.867 150.125 124.629C150.125 123.393 151.131 122.386 152.369 122.386C153.606 122.386 154.614 123.393 154.614 124.629C154.614 125.867 153.606 126.874 152.369 126.874Z" fill="white"/>
<path d="M149.799 145.685L143.031 129.344L144.476 128.745L151.245 145.087L149.799 145.685Z" fill="white"/>
<path d="M144.841 131.67C143.858 132.076 142.729 131.608 142.321 130.627C141.914 129.643 142.382 128.514 143.365 128.107C144.348 127.699 145.478 128.168 145.885 129.15C146.29 130.134 145.822 131.262 144.841 131.67Z" fill="white"/>
<path d="M147.821 146.495L133.263 131.937L134.37 130.83L148.927 145.387L147.821 146.495Z" fill="white"/>
<path d="M136.154 133.722C135.279 134.596 133.855 134.596 132.981 133.722C132.105 132.847 132.105 131.423 132.981 130.548C133.855 129.674 135.279 129.674 136.154 130.548C137.029 131.423 137.029 132.847 136.154 133.722Z" fill="white"/>
<path d="M147.639 148.84L131.298 142.072L131.897 140.626L148.238 147.394L147.639 148.84Z" fill="white"/>
<path d="M134.223 142.435C133.816 143.418 132.685 143.886 131.704 143.479C130.721 143.073 130.253 141.942 130.66 140.961C131.067 139.978 132.197 139.51 133.179 139.917C134.161 140.323 134.629 141.454 134.223 142.435Z" fill="white"/>
<path d="M146.813 150.813H126.225V149.246H146.813V150.813Z" fill="white"/>
<path d="M129.531 150.029C129.531 151.268 128.524 152.274 127.287 152.274C126.05 152.274 125.043 151.268 125.043 150.029C125.043 148.792 126.05 147.785 127.287 147.785C128.524 147.785 129.531 148.792 129.531 150.029Z" fill="white"/>
<path d="M132.002 159.368L131.403 157.921L147.743 151.153L148.343 152.6L132.002 159.368Z" fill="white"/>
<path d="M134.327 157.558C134.734 158.539 134.266 159.67 133.284 160.076C132.302 160.483 131.171 160.015 130.764 159.032C130.358 158.051 130.827 156.92 131.808 156.514C132.791 156.107 133.92 156.575 134.327 157.558Z" fill="white"/>
<path d="M134.594 169.134L133.488 168.028L148.045 153.47L149.152 154.577L134.594 169.134Z" fill="white"/>
<path d="M136.38 166.244C137.254 167.119 137.254 168.543 136.38 169.417C135.505 170.292 134.081 170.292 133.206 169.417C132.33 168.543 132.33 167.119 133.206 166.244C134.081 165.369 135.505 165.369 136.38 166.244Z" fill="white"/>
<path d="M144.729 171.101L143.284 170.501L150.052 154.159L151.498 154.759L144.729 171.101Z" fill="white"/>
<path d="M145.093 168.176C146.076 168.583 146.544 169.712 146.137 170.695C145.73 171.676 144.6 172.146 143.618 171.739C142.636 171.331 142.168 170.202 142.574 169.219C142.981 168.236 144.112 167.768 145.093 168.176Z" fill="white"/>
<path d="M153.47 176.174H151.905V155.587H153.47V176.174Z" fill="white"/>
<path d="M152.687 172.866C153.924 172.866 154.931 173.873 154.931 175.112C154.931 176.348 153.924 177.354 152.687 177.354C151.45 177.354 150.443 176.348 150.443 175.112C150.443 173.873 151.45 172.866 152.687 172.866Z" fill="white"/>
<path d="M160.579 170.995L153.81 154.654L155.256 154.055L162.024 170.397L160.579 170.995Z" fill="white"/>
<path d="M160.215 168.071C161.196 167.664 162.327 168.132 162.733 169.113C163.14 170.097 162.672 171.227 161.689 171.633C160.708 172.041 159.577 171.572 159.171 170.591C158.764 169.608 159.232 168.479 160.215 168.071Z" fill="white"/>
<path d="M170.686 168.911L156.129 154.353L157.236 153.245L171.793 167.804L170.686 168.911Z" fill="white"/>
<path d="M168.901 166.019C169.776 165.144 171.2 165.144 172.074 166.019C172.95 166.893 172.95 168.319 172.074 169.193C171.2 170.068 169.776 170.067 168.901 169.192C168.026 168.317 168.026 166.893 168.901 166.019Z" fill="white"/>
<path d="M173.158 159.115L156.817 152.347L157.416 150.9L173.757 157.668L173.158 159.115Z" fill="white"/>
<path d="M170.833 157.305C171.24 156.322 172.369 155.854 173.352 156.261C174.333 156.668 174.803 157.798 174.396 158.78C173.989 159.762 172.859 160.23 171.876 159.824C170.893 159.417 170.427 158.286 170.833 157.305Z" fill="white"/>
<path d="M178.831 150.494H158.245V148.929H178.831V150.494Z" fill="white"/>
<path d="M175.524 149.711C175.524 148.474 176.531 147.466 177.768 147.466C179.005 147.466 180.012 148.474 180.012 149.711C180.012 150.949 179.005 151.957 177.768 151.957C176.531 151.957 175.524 150.949 175.524 149.711Z" fill="white"/>
<path d="M157.312 148.588L156.713 147.141L173.053 140.373L173.652 141.82L157.312 148.588Z" fill="white"/>
<path d="M170.729 142.184C170.322 141.201 170.79 140.071 171.771 139.664C172.754 139.257 173.885 139.725 174.291 140.708C174.698 141.691 174.23 142.821 173.247 143.227C172.266 143.633 171.135 143.165 170.729 142.184Z" fill="white"/>
<path d="M157.01 146.27L155.904 145.163L170.461 130.606L171.568 131.713L157.01 146.27Z" fill="white"/>
<path d="M168.677 133.497C167.802 132.622 167.801 131.198 168.677 130.323C169.551 129.449 170.975 129.449 171.85 130.323C172.726 131.198 172.725 132.622 171.85 133.497C170.975 134.371 169.551 134.371 168.677 133.497Z" fill="white"/>
<path d="M155.004 145.581L153.557 144.983L160.326 128.641L161.772 129.24L155.004 145.581Z" fill="white"/>
<path d="M159.962 131.566C158.98 131.158 158.512 130.028 158.918 129.046C159.325 128.064 160.456 127.595 161.438 128.002C162.42 128.41 162.888 129.539 162.481 130.522C162.074 131.504 160.945 131.972 159.962 131.566Z" fill="white"/>
</svg>
