<svg width="274" height="262" viewBox="0 0 274 262" fill="none" xmlns="http://www.w3.org/2000/svg">
<path d="M244.765 59.2553C243.042 37.874 213.349 33.122 206.125 32.1553C202.633 25.7566 190.345 0.531298 166.979 5.7873C159.391 7.49396 152.506 12.7953 146.51 21.518C134.317 39.2553 120.826 68.3193 112.938 93.8366C108.43 108.423 105.942 121.027 105.545 131.294C104.977 145.983 108.818 156.27 116.962 161.867C125.107 167.467 136.087 167.367 149.598 161.575C159.042 157.526 169.915 150.689 181.919 141.253C202.918 124.747 225.219 101.739 237.411 84.002C243.406 75.2793 245.39 67.0086 244.765 59.2553Z" fill="#EC688A"/>
<path d="M100.724 4.97399C79.8558 0.00465507 66.1612 26.778 63.0092 33.3487C55.8452 34.6913 28.0571 38.5846 25.8345 62.4286C25.1131 70.1726 28.0278 78.3607 34.4718 86.758C47.5732 103.835 71.0438 125.647 92.8758 141.034C105.356 149.83 116.573 156.09 126.216 159.641C140.009 164.721 150.98 164.246 158.821 158.23C166.662 152.214 169.961 141.741 168.626 127.102C167.694 116.869 164.553 104.414 159.288 90.0807C150.078 65.01 135.089 36.6913 121.986 19.614C115.544 11.2166 108.29 6.77532 100.724 4.97399Z" fill="#EC688A"/>
<path d="M4.58754 125.191C-6.58712 143.502 14.6435 164.801 19.9195 169.829C18.9822 177.055 14.0969 204.687 36.0889 214.169C43.2302 217.247 51.9169 217.007 61.8955 213.474C82.1862 206.29 110.184 190.709 131.564 174.699C143.785 165.549 153.206 156.815 159.561 148.742C168.656 137.193 171.594 126.613 168.296 117.297C164.997 107.979 156.057 101.606 141.722 98.3501C131.701 96.0755 118.884 95.2155 103.626 95.7928C76.9369 96.8035 45.3715 102.309 25.0822 109.493C15.1049 113.025 8.63954 118.551 4.58754 125.191Z" fill="#EC688A"/>
<path d="M89.2131 253.771C103.174 270.056 129.99 256.447 136.402 252.984C142.988 256.107 167.758 269.292 183.57 251.307C188.706 245.466 191.16 237.131 190.884 226.548C190.322 205.031 184.154 173.59 175.537 148.31C170.609 133.858 165.214 122.199 159.501 113.659C151.326 101.442 142.173 95.3776 132.293 95.6363C122.413 95.8936 113.588 102.428 106.062 115.055C100.802 123.882 96.0238 135.806 91.8584 150.495C84.5718 176.191 80.0544 207.912 80.6158 229.428C80.8931 240.01 84.1504 247.866 89.2131 253.771Z" fill="#EC688A"/>
<path d="M237.651 213.021C257.454 204.774 252.797 175.066 251.485 167.897C256.49 162.6 276.683 143.117 264.465 122.52C260.498 115.83 253.329 110.921 243.179 107.913C222.541 101.798 190.733 97.9489 164.026 98.3329C148.759 98.5516 136.005 100.081 126.117 102.876C111.971 106.874 103.375 113.706 100.567 123.184C97.7606 132.66 101.247 143.072 110.93 154.13C117.701 161.86 127.563 170.09 140.246 178.59C162.434 193.461 191.206 207.56 211.843 213.674C221.993 216.681 230.47 216.01 237.651 213.021Z" fill="#EC688A"/>
<path d="M180.53 21.1674C180.53 -18.1552 136.909 9.35944 136.909 9.35944C136.909 9.35944 93.2876 -18.1552 93.2876 21.1674C93.2876 60.4901 112.818 142.033 136.909 142.033C161.001 142.033 180.53 60.4901 180.53 21.1674Z" fill="#FF92B1"/>
<path d="M43.0169 57.0216C5.61952 44.8696 18.3062 94.8576 18.3062 94.8576C18.3062 94.8576 -21.3405 127.842 16.0582 139.994C53.4555 152.144 137.042 158.768 144.488 135.856C151.932 112.944 80.4142 69.1723 43.0169 57.0216Z" fill="#FF92B1"/>
<path d="M34.6221 198.884C11.5101 230.696 62.9714 234.077 62.9714 234.077C62.9714 234.077 82.0887 281.976 105.202 250.162C128.315 218.35 160.446 140.901 140.955 126.741C121.465 112.581 57.7354 167.072 34.6221 198.884Z" fill="#FF92B1"/>
<path d="M166.947 250.705C190.06 282.517 209.178 234.619 209.178 234.619C209.178 234.619 260.64 231.239 237.527 199.427C214.414 167.613 150.684 113.123 131.195 127.284C111.704 141.444 143.834 218.893 166.947 250.705Z" fill="#FF92B1"/>
<path d="M257.123 140.871C294.522 128.719 254.874 95.7359 254.874 95.7359C254.874 95.7359 267.562 45.7479 230.163 57.8985C192.766 70.0505 121.25 113.823 128.694 136.733C136.139 159.647 219.726 153.021 257.123 140.871Z" fill="#FF92B1"/>
<path d="M156.309 130.813C156.309 141.176 147.908 149.576 137.546 149.576C127.184 149.576 118.782 141.176 118.782 130.813C118.782 120.452 127.184 112.051 137.546 112.051C147.908 112.051 156.309 120.452 156.309 130.813Z" fill="white"/>
<path d="M138.72 120.961H136.372V86.8796H138.72V120.961Z" fill="white"/>
<path d="M142.823 88.6388C142.823 91.5535 140.461 93.9161 137.546 93.9161C134.63 93.9161 132.269 91.5535 132.269 88.6388C132.269 85.7241 134.63 83.3615 137.546 83.3615C140.461 83.3615 142.823 85.7241 142.823 88.6388Z" fill="white"/>
<path d="M132.486 122.385L118.623 91.2508L120.768 90.2961L134.63 121.431L132.486 122.385Z" fill="white"/>
<path d="M125.233 90.2338C126.418 92.8965 125.221 96.0152 122.558 97.2018C119.895 98.3858 116.777 97.1885 115.591 94.5272C114.406 91.8645 115.603 88.7445 118.265 87.5592C120.927 86.3738 124.047 87.5712 125.233 90.2338Z" fill="white"/>
<path d="M129.515 125.267L104.188 102.463L105.759 100.718L131.086 123.522L129.515 125.267Z" fill="white"/>
<path d="M109.812 98.8457C111.979 100.795 112.152 104.132 110.203 106.298C108.254 108.464 104.916 108.639 102.751 106.688C100.584 104.739 100.41 101.402 102.36 99.2364C104.31 97.0697 107.646 96.895 109.812 98.8457Z" fill="white"/>
<path d="M127.974 129.108L95.561 118.577L96.2864 116.344L128.7 126.875L127.974 129.108Z" fill="white"/>
<path d="M99.2277 112.985C102 113.885 103.517 116.862 102.616 119.634C101.716 122.406 98.7384 123.924 95.9664 123.022C93.1944 122.122 91.677 119.145 92.5784 116.373C93.4784 113.601 96.4557 112.084 99.2277 112.985Z" fill="white"/>
<path d="M94.2341 136.807L93.9888 134.472L127.883 130.909L128.129 133.244L94.2341 136.807Z" fill="white"/>
<path d="M95.3094 130.207C98.2081 129.902 100.804 132.006 101.109 134.903C101.413 137.802 99.3108 140.399 96.4121 140.703C93.5134 141.008 90.9174 138.904 90.6134 136.007C90.3081 133.108 92.4108 130.512 95.3094 130.207Z" fill="white"/>
<path d="M100.437 154L99.2632 151.967L128.778 134.925L129.951 136.96L100.437 154Z" fill="white"/>
<path d="M98.7345 147.534C101.259 146.077 104.485 146.942 105.943 149.466C107.4 151.989 106.536 155.217 104.012 156.674C101.487 158.131 98.2599 157.266 96.8025 154.742C95.3452 152.218 96.2105 148.991 98.7345 147.534Z" fill="white"/>
<path d="M113.096 167.184L111.196 165.804L131.23 138.232L133.128 139.612L113.096 167.184Z" fill="white"/>
<path d="M108.911 161.969C110.625 159.611 113.925 159.089 116.282 160.803C118.639 162.515 119.162 165.815 117.45 168.173C115.737 170.531 112.437 171.053 110.078 169.34C107.721 167.628 107.198 164.328 108.911 161.969Z" fill="white"/>
<path d="M130.024 174.08L127.727 173.592L134.813 140.256L137.109 140.744L130.024 174.08Z" fill="white"/>
<path d="M124.079 171.018C124.686 168.168 127.487 166.348 130.338 166.953C133.19 167.56 135.008 170.361 134.403 173.213C133.798 176.064 130.995 177.882 128.143 177.277C125.294 176.672 123.472 173.869 124.079 171.018Z" fill="white"/>
<path d="M145.995 173.983L138.91 140.647L141.206 140.159L148.292 173.495L145.995 173.983Z" fill="white"/>
<path d="M141.616 173.115C141.011 170.264 142.83 167.461 145.682 166.856C148.532 166.251 151.334 168.069 151.94 170.92C152.546 173.772 150.726 176.573 147.875 177.179C145.026 177.785 142.223 175.965 141.616 173.115Z" fill="white"/>
<path d="M162.844 166.909L142.812 139.337L144.711 137.957L164.744 165.529L162.844 166.909Z" fill="white"/>
<path d="M158.49 167.897C156.778 165.54 157.3 162.24 159.658 160.527C162.017 158.813 165.316 159.336 167.029 161.695C168.741 164.052 168.22 167.352 165.861 169.064C163.504 170.779 160.204 170.256 158.49 167.897Z" fill="white"/>
<path d="M175.358 153.594L145.842 136.554L147.017 134.519L176.532 151.561L175.358 153.594Z" fill="white"/>
<path d="M171.783 156.268C169.259 154.81 168.395 151.582 169.852 149.06C171.31 146.536 174.536 145.67 177.06 147.128C179.584 148.585 180.45 151.812 178.991 154.336C177.534 156.86 174.308 157.725 171.783 156.268Z" fill="white"/>
<path d="M181.375 136.34L147.48 132.777L147.726 130.443L181.62 134.005L181.375 136.34Z" fill="white"/>
<path d="M179.197 140.236C176.298 139.932 174.196 137.335 174.501 134.436C174.805 131.539 177.401 129.435 180.3 129.74C183.198 130.044 185.301 132.642 184.997 135.54C184.692 138.439 182.096 140.542 179.197 140.236Z" fill="white"/>
<path d="M147.441 128.662L146.715 126.429L179.129 115.897L179.854 118.13L147.441 128.662Z" fill="white"/>
<path d="M179.448 122.576C176.677 123.476 173.699 121.96 172.8 119.188C171.899 116.416 173.416 113.439 176.188 112.539C178.959 111.638 181.936 113.155 182.837 115.927C183.737 118.699 182.22 121.676 179.448 122.576Z" fill="white"/>
<path d="M145.731 124.919L144.159 123.173L169.485 100.369L171.057 102.113L145.731 124.919Z" fill="white"/>
<path d="M172.496 106.341C170.33 108.29 166.994 108.115 165.043 105.95C163.092 103.785 163.268 100.447 165.434 98.4965C167.599 96.5472 170.936 96.7219 172.887 98.8872C174.836 101.054 174.662 104.39 172.496 106.341Z" fill="white"/>
<path d="M142.646 122.195L140.502 121.24L154.362 90.1055L156.507 91.0601L142.646 122.195Z" fill="white"/>
<path d="M159.541 94.336C158.356 96.9986 155.236 98.196 152.573 97.0106C149.91 95.8253 148.714 92.7053 149.9 90.0426C151.085 87.38 154.204 86.1826 156.866 87.368C159.529 88.5546 160.726 91.6733 159.541 94.336Z" fill="white"/>
</svg>
